<svg class="animated" id="freepik_stories-online-tech-talks" xmlns="http://www.w3.org/2000/svg" viewBox="0 0 750 500" version="1.1" xmlns:xlink="http://www.w3.org/1999/xlink" xmlns:svgjs="http://svgjs.com/svgjs"><style>svg#freepik_stories-online-tech-talks:not(.animated) .animable {opacity: 0;}svg#freepik_stories-online-tech-talks.animated #freepik--background-complete--inject-101 {animation: 1s 1 forwards cubic-bezier(.36,-0.01,.5,1.38) slideLeft;animation-delay: 0s;}svg#freepik_stories-online-tech-talks.animated #freepik--speech-bubble-2--inject-101 {animation: 3s Infinite  linear floating;animation-delay: 0s;}            @keyframes slideLeft {                0% {                    opacity: 0;                    transform: translateX(-30px);                }                100% {                    opacity: 1;                    transform: translateX(0);                }            }                    @keyframes floating {                0% {                    opacity: 1;                    transform: translateY(0px);                }                50% {                    transform: translateY(-10px);                }                100% {                    opacity: 1;                    transform: translateY(0px);                }            }        .animator-hidden { display: none; }</style><g id="freepik--background-complete--inject-101" class="animable" style="transform-origin: 374.355px 257.63px;"><path d="M587.4,341.52a31.44,31.44,0,0,1,7.54-3.22l1.55-7.34,12.59-.21,1.81,7.27a31.31,31.31,0,0,1,7.65,3l6.36-4.1,9.06,8.61-3.94,6.4a30,30,0,0,1,3.27,7.42l7.46,1.52.22,12.4-7.4,1.78a30.37,30.37,0,0,1-3,7.53l4.17,6.26L626,397.72l-6.51-3.88a31.37,31.37,0,0,1-7.53,3.22l-1.55,7.34-12.6.21L596,397.33a31.22,31.22,0,0,1-7.64-2.95l-6.37,4.1-9.06-8.61,4-6.4a30.43,30.43,0,0,1-3.28-7.42l-7.45-1.52-.22-12.4,7.39-1.79a30.49,30.49,0,0,1,3-7.52l-4.17-6.26,8.75-8.92,6.5,3.88Zm8,15.35a13.18,13.18,0,0,0,.38,21.1,13.67,13.67,0,0,0,16.46-.29,13.18,13.18,0,0,0-.38-21.1A13.67,13.67,0,0,0,595.42,356.87Z" style="fill: rgb(235, 235, 235); transform-origin: 603.475px 367.68px;" id="el2u54hqowwog" class="animable"></path><path d="M444.1,421.56a24,24,0,0,1,5.8-2.48l1.19-5.64,9.69-.17,1.39,5.6a24.09,24.09,0,0,1,5.88,2.27l4.89-3.15,7,6.62-3,4.93a23,23,0,0,1,2.52,5.7l5.73,1.17.17,9.54-5.69,1.37a23.13,23.13,0,0,1-2.31,5.78l3.21,4.82-6.73,6.86-5-3a23.8,23.8,0,0,1-5.79,2.48l-1.19,5.64-9.69.17-1.39-5.6a24.09,24.09,0,0,1-5.88-2.27l-4.9,3.16-7-6.63,3-4.92a23.12,23.12,0,0,1-2.52-5.7l-5.73-1.18-.17-9.53,5.69-1.38a23.29,23.29,0,0,1,2.31-5.78l-3.21-4.82,6.73-6.86,5,3Zm6.17,11.8a10.14,10.14,0,0,0,.29,16.23,10.52,10.52,0,0,0,12.66-.22,10.14,10.14,0,0,0-.29-16.23A10.52,10.52,0,0,0,450.27,433.36Z" style="fill: rgb(245, 245, 245); transform-origin: 456.47px 441.67px;" id="elvwrsn4cznuj" class="animable"></path><path d="M663.73,334.78a13.26,13.26,0,0,1,3.36-1.44l.69-3.28,5.63-.1.81,3.25a14.17,14.17,0,0,1,3.41,1.32l2.84-1.83,4,3.85-1.76,2.86a13.36,13.36,0,0,1,1.46,3.31l3.33.68.1,5.53-3.31.8a13.26,13.26,0,0,1-1.34,3.36l1.86,2.8-3.9,4-2.91-1.73a13.6,13.6,0,0,1-3.36,1.43l-.69,3.28-5.63.1-.81-3.25a14.33,14.33,0,0,1-3.41-1.32l-2.84,1.83-4-3.85L659,353.5a13.36,13.36,0,0,1-1.46-3.31l-3.33-.68-.09-5.53,3.3-.8a13.64,13.64,0,0,1,1.34-3.36l-1.86-2.8,3.9-4,2.91,1.74Zm3.58,6.85a5.88,5.88,0,0,0,.17,9.42,6.11,6.11,0,0,0,7.35-.13,5.88,5.88,0,0,0-.17-9.42A6.11,6.11,0,0,0,667.31,341.63Z" style="fill: rgb(235, 235, 235); transform-origin: 670.86px 346.465px;" id="elrfkt7o1ql6i" class="animable"></path><path d="M583.65,429.68a13.83,13.83,0,0,1,3.37-1.43l.69-3.28,5.62-.1.81,3.25a14.17,14.17,0,0,1,3.41,1.32l2.85-1.83,4,3.85-1.76,2.86a13.36,13.36,0,0,1,1.46,3.31l3.33.68.1,5.53-3.3.8a13.64,13.64,0,0,1-1.34,3.36l1.86,2.8-3.91,4L598,453a13.48,13.48,0,0,1-3.37,1.44l-.69,3.28-5.62.1-.81-3.25a14,14,0,0,1-3.42-1.33l-2.84,1.84-4-3.85,1.76-2.86a13,13,0,0,1-1.46-3.31l-3.33-.68-.1-5.53,3.3-.8a13.64,13.64,0,0,1,1.34-3.36l-1.86-2.8,3.91-4,2.9,1.73Zm3.58,6.86a5.89,5.89,0,0,0,.17,9.42,6.11,6.11,0,0,0,7.35-.13,5.88,5.88,0,0,0-.17-9.42A6.11,6.11,0,0,0,587.23,436.54Z" style="fill: rgb(245, 245, 245); transform-origin: 590.825px 441.345px;" id="el24g4s6t87k8h" class="animable"></path><path d="M103.85,75a34.74,34.74,0,0,1,8.4-3.6L114,63.21,128,63l2,8.12a34.49,34.49,0,0,1,8.52,3.3l7.1-4.58,10.1,9.6-4.39,7.14A33.39,33.39,0,0,1,155,94.82l8.32,1.7.24,13.82-8.24,2a33.75,33.75,0,0,1-3.35,8.39l4.65,7-9.76,10-7.25-4.33a34.65,34.65,0,0,1-8.4,3.59l-1.73,8.18-14.05.25-2-8.12a34.49,34.49,0,0,1-8.52-3.3l-7.1,4.58-10.1-9.6,4.4-7.14a33.22,33.22,0,0,1-3.65-8.27l-8.31-1.7L79.89,98l8.25-2a33.45,33.45,0,0,1,3.35-8.38l-4.65-7,9.75-9.94L103.85,75Zm8.93,17.11a14.69,14.69,0,0,0,.43,23.52,15.21,15.21,0,0,0,18.35-.32,14.7,14.7,0,0,0-.42-23.53A15.26,15.26,0,0,0,112.78,92.1Z" style="fill: rgb(235, 235, 235); transform-origin: 121.725px 104.21px;" id="elysttc9x8zzi" class="animable"></path><path d="M181.48,50a13.6,13.6,0,0,1,3.36-1.43l.69-3.28,5.63-.1.81,3.25a14.33,14.33,0,0,1,3.41,1.32L198.22,48l4.05,3.85-1.76,2.85A13.59,13.59,0,0,1,202,58l3.33.68.1,5.53-3.31.8a13.26,13.26,0,0,1-1.34,3.36l1.86,2.8-3.9,4-2.91-1.74a13.26,13.26,0,0,1-3.36,1.44l-.69,3.28-5.63.1L185.31,75a14,14,0,0,1-3.41-1.33l-2.84,1.84L175,71.62l1.76-2.86a13.36,13.36,0,0,1-1.46-3.31L172,64.77l-.1-5.53,3.31-.8a13.26,13.26,0,0,1,1.34-3.36l-1.86-2.8,3.9-4L181.48,50Zm3.58,6.86a5.88,5.88,0,0,0,.17,9.42,6.11,6.11,0,0,0,7.35-.13,5.89,5.89,0,0,0-.17-9.42A6.11,6.11,0,0,0,185.06,56.89Z" style="fill: rgb(235, 235, 235); transform-origin: 188.665px 61.72px;" id="el0xzkhajkmvcf" class="animable"></path><path d="M73,192.6a17.28,17.28,0,0,1,4.18-1.79l.86-4.07,7-.12,1,4a16.85,16.85,0,0,1,4.24,1.64L93.84,190l5,4.78-2.19,3.55a16.7,16.7,0,0,1,1.82,4.11l4.13.85.13,6.88-4.11,1A16.74,16.74,0,0,1,97,215.35l2.31,3.48-4.85,4.94-3.61-2.15a17.28,17.28,0,0,1-4.18,1.79l-.86,4.07-7,.12-1-4a16.85,16.85,0,0,1-4.24-1.64L70,224.2l-5-4.78,2.19-3.55a16.6,16.6,0,0,1-1.82-4.12l-4.14-.84L61.11,204l4.1-1a17,17,0,0,1,1.67-4.17l-2.31-3.48,4.85-4.95L73,192.6Zm4.45,8.51a7.32,7.32,0,0,0,.21,11.71,7.59,7.59,0,0,0,9.13-.16A7.32,7.32,0,0,0,86.61,201,7.59,7.59,0,0,0,77.48,201.11Z" style="fill: rgb(245, 245, 245); transform-origin: 81.92px 207.11px;" id="el15k4ccp83jf" class="animable"></path></g><g id="freepik--Graphics--inject-101" class="animable animator-hidden" style="transform-origin: 380.029px 225.832px;"><path d="M514,232s0-.77-.08-2.27c0-.75-.05-1.68-.08-2.79s-.06-2.4-.2-3.86-.24-3.09-.39-4.89-.47-3.75-.73-5.87a146.81,146.81,0,0,0-2.84-14.49A137.4,137.4,0,0,0,504,180.28a134.08,134.08,0,0,0-9.73-19.69,141.3,141.3,0,0,0-35.49-39.71A139.25,139.25,0,0,0,400,94.78a142.07,142.07,0,0,0-54.72.62c-3.12.72-6.26,1.39-9.36,2.35s-6.2,1.93-9.31,3a140.21,140.21,0,0,0-35.37,19,152.48,152.48,0,0,0-15.76,13.57,150.46,150.46,0,0,0-13.79,16.1,137,137,0,0,0-11.38,18.32c-.81,1.63-1.72,3.21-2.44,4.88l-2.25,5-2,5.11L243,184l-.44,1.3-.88,2.62-.89,2.62-.76,2.67c-.47,1.78-1.07,3.54-1.44,5.36s-.83,3.62-1.25,5.44-.65,3.67-1,5.51a139.24,139.24,0,0,0,0,44.94,136.41,136.41,0,0,0,5.32,21.61l.88,2.61L243,280l.51,1.28,2,5.12,2.25,5c.36.84.77,1.65,1.19,2.46l1.25,2.42a136.43,136.43,0,0,0,11.38,18.33,150.58,150.58,0,0,0,13.79,16.11,154.78,154.78,0,0,0,15.76,13.57,146.2,146.2,0,0,0,17.21,10.89,148.05,148.05,0,0,0,18.17,8.13c3.11,1,6.17,2.16,9.31,3s6.25,1.62,9.36,2.34a141.77,141.77,0,0,0,54.73.63,139.42,139.42,0,0,0,58.81-26.11,141.3,141.3,0,0,0,35.49-39.71,134.57,134.57,0,0,0,9.72-19.7c.6-1.57,1.28-3.09,1.78-4.62s1-3,1.52-4.49.87-2.92,1.29-4.32.84-2.77,1.14-4.13a146.1,146.1,0,0,0,2.84-14.48c.26-2.12.55-4.07.73-5.87s.27-3.43.39-4.89.17-2.74.2-3.85.06-2,.08-2.8c0-1.5.08-2.26.08-2.26s0,.76,0,2.26c0,.76,0,1.69,0,2.8s0,2.4-.18,3.86-.22,3.09-.36,4.89-.45,3.76-.71,5.88a145.12,145.12,0,0,1-2.79,14.51c-.3,1.36-.75,2.72-1.13,4.14s-.76,2.88-1.28,4.33l-1.52,4.5c-.49,1.54-1.17,3.05-1.77,4.64a134.18,134.18,0,0,1-9.7,19.74A141.41,141.41,0,0,1,459,343.42,139.69,139.69,0,0,1,400,369.66a142.5,142.5,0,0,1-54.91-.59c-3.12-.72-6.28-1.39-9.39-2.35s-6.22-1.94-9.35-3a148.91,148.91,0,0,1-18.23-8.14,147.23,147.23,0,0,1-17.27-10.93,139.61,139.61,0,0,1-29.67-29.77,138.15,138.15,0,0,1-11.43-18.4l-1.25-2.43c-.42-.81-.83-1.63-1.19-2.47l-2.27-5q-1-2.56-2-5.13l-.5-1.29-.45-1.31-.88-2.63a136.34,136.34,0,0,1-5.34-21.69,139.91,139.91,0,0,1,0-45.11l1-5.53q.63-2.73,1.25-5.45c.38-1.83,1-3.6,1.46-5.39l.76-2.67.88-2.64.89-2.62.45-1.31.5-1.29q1-2.57,2-5.13l2.27-5c.72-1.68,1.63-3.26,2.44-4.9a138.68,138.68,0,0,1,11.43-18.39A151.38,151.38,0,0,1,275.08,133a153.42,153.42,0,0,1,15.81-13.61,147.23,147.23,0,0,1,17.27-10.93,148.91,148.91,0,0,1,18.23-8.14c3.13-1,6.2-2.16,9.35-3s6.27-1.62,9.39-2.35a142.42,142.42,0,0,1,54.9-.59,139.84,139.84,0,0,1,59,26.23,141.39,141.39,0,0,1,35.52,39.86,134.37,134.37,0,0,1,9.71,19.75,137.89,137.89,0,0,1,5.7,17.6,145.81,145.81,0,0,1,2.79,14.52c.26,2.12.54,4.08.71,5.88s.26,3.43.36,4.89.16,2.75.18,3.86,0,2.05,0,2.8C514,231.24,514,232,514,232Z" style="fill: rgb(38, 50, 56); transform-origin: 374.024px 232.02px;" id="el1tfwgk1jmxy" class="animable"></path><path d="M188.58,180.4s0-.07,0-.23,0-.38.08-.68c.06-.6.2-1.49.38-2.65.4-2.33,1.13-5.73,2.33-10.05A152.9,152.9,0,0,1,206.47,132c.51-.86,1-1.74,1.54-2.63s1.05-1.79,1.64-2.66l3.51-5.42c1.24-1.82,2.57-3.63,3.89-5.49s2.76-3.71,4.23-5.56c2.85-3.79,6.14-7.44,9.45-11.26L236,93.36l1.35-1.42,1.43-1.36,2.88-2.75a216.14,216.14,0,0,1,26.13-21c4.82-3.27,9.83-6.46,15.1-9.4a155.12,155.12,0,0,1,16.43-8.17l.28-.11.07.29c.54,2.07,1.13,4.31,1.71,6.55.78,3,1.56,6,2.3,8.81l.06.22-.21.08a164.82,164.82,0,0,0-44.4,27.38,183.33,183.33,0,0,0-30.42,34.2,200.7,200.7,0,0,0-18.08,32.4c-2.15,4.88-3.92,9.43-5.33,13.57-.7,2.07-1.34,4-1.85,5.89-.27.92-.49,1.82-.71,2.69a12.62,12.62,0,0,0-.41,2.5v.15l-.12,0-10.18-2.54-2.62-.66-.87-.23s.32.06.91.2l2.65.62,10.16,2.42-.12.13a11.6,11.6,0,0,1,.39-2.61c.21-.87.43-1.78.7-2.71.5-1.86,1.13-3.83,1.82-5.9,1.39-4.15,3.14-8.72,5.28-13.62a199.2,199.2,0,0,1,18-32.51,183,183,0,0,1,30.45-34.33A164.74,164.74,0,0,1,303.37,64.6l-.15.31c-.74-2.83-1.52-5.81-2.3-8.81-.59-2.24-1.17-4.48-1.71-6.55l.34.17a155.85,155.85,0,0,0-16.37,8.13c-5.25,2.94-10.25,6.12-15.07,9.38a218.62,218.62,0,0,0-26.09,21l-2.87,2.74-1.43,1.35-1.35,1.41-5.31,5.55c-3.31,3.81-6.59,7.44-9.45,11.22-1.47,1.85-2.93,3.66-4.22,5.54s-2.66,3.66-3.9,5.47-2.37,3.64-3.52,5.4c-.59.87-1.12,1.76-1.64,2.65s-1,1.76-1.55,2.62a155.28,155.28,0,0,0-15.21,34.71c-1.23,4.3-2,7.7-2.42,10-.2,1.16-.35,2.05-.43,2.65l-.1.67A2.32,2.32,0,0,1,188.58,180.4Z" style="fill: rgb(224, 224, 224); transform-origin: 246.14px 116.515px;" id="el6f16xud1anj" class="animable"></path><path d="M540.76,229.87s0-.91-.09-2.7c0-.89-.06-2-.1-3.32s-.07-2.86-.23-4.6-.29-3.68-.46-5.82-.56-4.47-.87-7c-.71-5-1.81-10.82-3.38-17.25-.37-1.61-.9-3.23-1.36-4.92-.23-.84-.48-1.69-.72-2.55-.13-.43-.25-.86-.37-1.3s-.29-.86-.44-1.3l-1.82-5.34c-.59-1.83-1.4-3.63-2.11-5.51a160.79,160.79,0,0,0-11.59-23.46,168.16,168.16,0,0,0-42.28-47.32,166.06,166.06,0,0,0-70.05-31.1,169.32,169.32,0,0,0-65.2.74c-3.71.86-7.46,1.66-11.15,2.79s-7.39,2.31-11.1,3.55A166.9,166.9,0,0,0,275.3,96.12a181.72,181.72,0,0,0-18.77,16.16,179.23,179.23,0,0,0-16.43,19.18c-1.24,1.73-2.47,3.47-3.71,5.21s-2.31,3.6-3.47,5.4-2.2,3.69-3.29,5.54l-1.61,2.8-1.49,2.88-1.48,2.89c-.5,1-1,1.93-1.42,2.93L221,165.05c-.8,2-1.61,4.06-2.41,6.1l-.6,1.52-.53,1.56-1,3.12-1.06,3.12-.9,3.18-.9,3.18-.45,1.59-.37,1.62c-.5,2.15-1,4.31-1.49,6.48L210,203.08a180.57,180.57,0,0,0-2.18,26.77A180.7,180.7,0,0,0,210,256.63q.6,3.28,1.18,6.57c.49,2.16,1,4.32,1.48,6.47s1.15,4.27,1.72,6.4l.9,3.18,1.06,3.12,1.05,3.12.53,1.56.6,1.52,2.4,6.1c.9,2,1.8,4,2.69,5.95l.68,1.48.74,1.44,1.48,2.89,1.49,2.88,1.61,2.81c1.09,1.85,2.09,3.76,3.29,5.54s2.31,3.61,3.47,5.4l3.7,5.21a179.6,179.6,0,0,0,16.44,19.19,182.1,182.1,0,0,0,18.78,16.17,166.45,166.45,0,0,0,42.14,22.66c3.71,1.24,7.36,2.57,11.1,3.55,3.69,1.13,7.44,1.93,11.15,2.79a164.21,164.21,0,0,0,22.3,3.11,165.9,165.9,0,0,0,42.91-2.37A165.76,165.76,0,0,0,475,362.26a168.32,168.32,0,0,0,42.28-47.32,160.19,160.19,0,0,0,11.58-23.46c.72-1.88,1.52-3.68,2.12-5.51l1.81-5.34c.31-.87.58-1.73.81-2.6s.49-1.71.73-2.55c.45-1.68,1-3.3,1.35-4.92,1.57-6.42,2.67-12.2,3.38-17.25.31-2.53.65-4.85.87-7s.32-4.09.46-5.83.2-3.27.23-4.59.07-2.43.1-3.32c.05-1.79.09-2.71.09-2.71s0,.92,0,2.71c0,.89,0,2-.07,3.32s0,2.86-.21,4.6-.27,3.69-.43,5.83-.54,4.47-.85,7a173.42,173.42,0,0,1-3.33,17.28c-.36,1.62-.89,3.24-1.35,4.93-.24.84-.48,1.69-.72,2.56s-.5,1.73-.8,2.6l-1.81,5.35c-.59,1.84-1.4,3.64-2.11,5.53a160.38,160.38,0,0,1-11.56,23.51,168.49,168.49,0,0,1-42.3,47.46A166.29,166.29,0,0,1,405,393.79a169.51,169.51,0,0,1-65.39-.7c-3.72-.86-7.48-1.66-11.18-2.8-3.75-1-7.41-2.31-11.13-3.55A167,167,0,0,1,275,364a166.2,166.2,0,0,1-35.33-35.45L236,323.35l-3.49-5.42c-1.2-1.78-2.2-3.7-3.3-5.56l-1.62-2.81-1.49-2.89-1.48-2.9-.75-1.45-.67-1.48-2.7-6c-.8-2-1.61-4.07-2.41-6.11l-.61-1.54-.53-1.56-1-3.12-1.06-3.14-.91-3.19c-.57-2.13-1.28-4.24-1.72-6.41s-1-4.33-1.49-6.5-.79-4.39-1.18-6.59a166.12,166.12,0,0,1,0-53.71l1.17-6.59,1.5-6.49.37-1.63.45-1.59.9-3.2.91-3.18,1.06-3.14,1-3.12.53-1.56.61-1.54c.8-2,1.61-4.07,2.41-6.11l2.7-6c.43-1,.92-2,1.42-2.94l1.49-2.89,1.49-2.89,1.61-2.81c1.1-1.86,2.1-3.78,3.3-5.56l3.49-5.42,3.71-5.22A165.84,165.84,0,0,1,275,95.72,167.2,167.2,0,0,1,317.28,73c3.72-1.24,7.38-2.58,11.13-3.55,3.7-1.14,7.46-1.94,11.18-2.8A168.52,168.52,0,0,1,362,63.55,165.82,165.82,0,0,1,405,66a166.11,166.11,0,0,1,70.2,31.23,168.49,168.49,0,0,1,42.3,47.46A160.08,160.08,0,0,1,529,168.17c.71,1.88,1.51,3.69,2.11,5.52s1.22,3.61,1.8,5.36c.15.43.29.86.44,1.3l.37,1.3q.36,1.29.72,2.55c.46,1.69,1,3.31,1.34,4.93a171.4,171.4,0,0,1,3.34,17.28c.31,2.53.64,4.86.85,7s.3,4.09.43,5.83.19,3.27.21,4.59.05,2.44.07,3.33C540.76,229,540.76,229.87,540.76,229.87Z" style="fill: rgb(224, 224, 224); transform-origin: 374.107px 229.869px;" id="elj5css6nfa2c" class="animable"></path><path d="M390.66,40.9c-.06,0,0-.59-.31-1.6a6.61,6.61,0,0,0-2.43-3.54,6.48,6.48,0,0,0-6.1-.88,6.41,6.41,0,0,0-3,2.24,6.52,6.52,0,0,0-1.24,3.78A6.45,6.45,0,0,0,387.92,46a6.61,6.61,0,0,0,2.43-3.54c.27-1,.25-1.6.31-1.6a2.43,2.43,0,0,1,0,.43,6,6,0,0,1-.14,1.22,6.65,6.65,0,0,1-2.41,3.78,6.78,6.78,0,0,1-6.48,1A6.7,6.7,0,0,1,378.44,45a6.84,6.84,0,0,1,0-8.16,6.84,6.84,0,0,1,9.7-1.35,6.65,6.65,0,0,1,2.41,3.78,6.08,6.08,0,0,1,.14,1.22A2.43,2.43,0,0,1,390.66,40.9Z" style="fill: rgb(224, 224, 224); transform-origin: 383.89px 40.8799px;" id="elj7il1l6wgbc" class="animable"></path><path d="M208.18,216.41l-.53,0-1.54,0-5.79.07-20.33.1h-.12l-.07-.1-11.21-15.49c-5.15-7.14-10-13.83-14-19.48l.18.09-16.9-.09-4.73-.07-1.25,0a2.43,2.43,0,0,1-.43,0,1.34,1.34,0,0,1,.43,0l1.25,0,4.73-.07,16.9-.09h.11l.07.09L169,200.76l11.17,15.51-.19-.1,20.33.09,5.79.07,1.54,0A2,2,0,0,1,208.18,216.41Z" style="fill: rgb(224, 224, 224); transform-origin: 169.82px 198.93px;" id="elp70v5vea68n" class="animable"></path><path d="M131.84,181.45s0,.11,0,.33a3.81,3.81,0,0,1-.1,1,5.13,5.13,0,0,1-1.88,3,5.39,5.39,0,0,1-5.13.83,5.28,5.28,0,0,1-2.55-1.89,5.43,5.43,0,0,1,0-6.47,5.28,5.28,0,0,1,2.55-1.89,5.39,5.39,0,0,1,5.13.83,5.13,5.13,0,0,1,1.88,3,3.81,3.81,0,0,1,.1,1c0,.22,0,.34,0,.34s0-.47-.26-1.25a5.25,5.25,0,0,0-1.91-2.76,5,5,0,1,0,0,8,5.23,5.23,0,0,0,1.91-2.75C131.8,181.91,131.79,181.44,131.84,181.45Z" style="fill: rgb(224, 224, 224); transform-origin: 126.477px 181.485px;" id="elao4ckg6rsfk" class="animable"></path><path d="M628.21,310.25s0-.11,0-.33a3.89,3.89,0,0,1,.1-1,5.21,5.21,0,0,1,1.89-3,5.39,5.39,0,0,1,7.68,1.06,5.44,5.44,0,0,1-2.55,8.36,5.41,5.41,0,0,1-5.13-.83,5.23,5.23,0,0,1-1.89-3,3.81,3.81,0,0,1-.1-1c0-.22,0-.34,0-.34s0,.47.26,1.25a5.23,5.23,0,0,0,1.91,2.75,5,5,0,1,0,4.74-8.68,5.07,5.07,0,0,0-4.74.68,5.23,5.23,0,0,0-1.91,2.75C628.25,309.79,628.26,310.25,628.21,310.25Z" style="fill: rgb(224, 224, 224); transform-origin: 633.577px 310.21px;" id="elzjzeshyk72m" class="animable"></path><path d="M527.65,298.89a1.74,1.74,0,0,1,.32.18l.89.58,3.4,2.25,12.3,8.29-.11,0,31.8-.06,36.87.08,11.18.08,3,.05.79,0a.76.76,0,0,1,.26,0l-.26,0-.79,0-3,0-11.18.09-36.87.07-31.8-.05h-.07l0,0-12.2-8.44-3.34-2.34-.86-.63C527.74,299,527.64,298.9,527.65,298.89Z" style="fill: rgb(224, 224, 224); transform-origin: 578px 304.695px;" id="el1j75173oqiw" class="animable"></path><path d="M452.21,402.22s-.07,0-.22.12l-.68.31-2.62,1.12c-1.15.47-2.54,1.08-4.18,1.72l-5.62,2c-2.08.76-4.42,1.43-6.9,2.23s-5.19,1.45-8,2.24c-5.7,1.38-12,2.73-18.7,3.73a162.6,162.6,0,0,1-27.94,1.89h-.2v-.21c0-6.31.07-11.53.09-15.23,0-1.79,0-3.21.06-4.23q0-.68,0-1.11a.19.19,0,1,1,.06,0c0,.29,0,.66,0,1.11,0,1,0,2.44.05,4.23,0,3.7.06,8.92.1,15.23l-.21-.21a170.14,170.14,0,0,0,27.85-2c6.67-1,13-2.33,18.65-3.69,2.82-.77,5.52-1.43,8-2.19s4.82-1.42,6.9-2.16l5.64-2c1.65-.61,3-1.19,4.2-1.63l2.66-1,.7-.25Z" style="fill: rgb(224, 224, 224); transform-origin: 414.675px 407.015px;" id="el54loswmpumx" class="animable"></path><path d="M545,396.46a.86.86,0,0,1-.26.1l-.76.24-2.93.86-10.81,3.06-35.72,9.92-2.63.72-.17.05-.1-.14c-8.47-10.95-16.07-20.76-21.57-27.88L463.62,375l-1.72-2.29-.44-.61a.93.93,0,0,1-.13-.21l.17.18.48.58,1.8,2.23,6.56,8.31L492,411l-.28-.09,2.63-.72,35.76-9.78,10.86-2.9,3-.76.78-.19A1,1,0,0,1,545,396.46Z" style="fill: rgb(224, 224, 224); transform-origin: 503.165px 391.65px;" id="ellrau43ulos" class="animable"></path><path d="M377.35,40.9a4.44,4.44,0,0,1-.79.07l-2.28.09-3.61.12-2.25.07-2.52.16-5.78.38-6.61.67c-2.33.23-4.75.63-7.27.95s-5.11.87-7.77,1.31A171.84,171.84,0,0,0,311.83,52c-3.33,1.21-5.95,2.36-7.76,3.16l-2.06,1a5.14,5.14,0,0,1-.73.32A4.68,4.68,0,0,1,302,56c.45-.26,1.14-.6,2-1.05,1.79-.86,4.4-2.06,7.72-3.33a160,160,0,0,1,26.67-7.44c2.67-.45,5.26-1,7.79-1.3s5-.71,7.3-.93l6.63-.62,5.79-.32,2.53-.13,2.25,0,3.61,0h2.29A4.37,4.37,0,0,1,377.35,40.9Z" style="fill: rgb(224, 224, 224); transform-origin: 339.315px 48.6758px;" id="elevrkpn9u4yl" class="animable"></path><path d="M374.52,362.75c-70.89,0-128.57-59-128.57-131.52S303.63,99.71,374.52,99.71s128.57,59,128.57,131.52S445.42,362.75,374.52,362.75Zm0-262C304.18,100.71,247,159.26,247,231.23s57.23,130.52,127.57,130.52S502.09,303.2,502.09,231.23,444.87,100.71,374.52,100.71Z" style="fill: rgb(224, 224, 224); transform-origin: 374.52px 231.23px;" id="elirpadvwbplk" class="animable"></path><path d="M367.44,362.43c-.59-.58-58.87-59-58.87-134.19,0-39.3,17.85-72.13,32.82-92.74,16.22-22.33,32.66-35.55,32.82-35.68l.63.78c-.17.13-16.52,13.28-32.66,35.51-14.87,20.49-32.61,53.11-32.61,92.13,0,74.75,58,132.9,58.57,133.48Z" style="fill: rgb(224, 224, 224); transform-origin: 341.705px 231.125px;" id="elmih95s13cwd" class="animable"></path><path d="M372.72,181.91c-34.83,0-67-10.59-98.29-32.37l.57-.82c31.13,21.66,63.1,32.19,97.72,32.19,42.25,0,79.18-16.3,102.72-30l.5.86C452.29,165.53,415.19,181.91,372.72,181.91Z" style="fill: rgb(224, 224, 224); transform-origin: 375.185px 165.315px;" id="el5qqy7yhdjv6" class="animable"></path><path d="M475.4,312.24c-22.61-15.46-58.65-33.88-102-33.88-43,0-80.61,16.31-104.57,30l-.5-.87c24.07-13.74,61.83-30.12,105.07-30.12,43.58,0,79.81,18.52,102.54,34.05Z" style="fill: rgb(224, 224, 224); transform-origin: 372.135px 294.805px;" id="el8ywgc53tpx9" class="animable"></path><path d="M381.32,362.43l-.7-.71c.58-.58,58.57-58.73,58.57-133.48,0-39-17.75-71.66-32.63-92.16-16.14-22.21-32.47-35.35-32.63-35.48l.62-.78c.16.13,16.6,13.35,32.82,35.68,15,20.61,32.82,53.44,32.82,92.74C440.19,303.42,381.91,361.85,381.32,362.43Z" style="fill: rgb(224, 224, 224); transform-origin: 407.06px 231.125px;" id="elcibap5t7jwr" class="animable"></path><rect x="244.87" y="224.54" width="258.73" height="1" style="fill: rgb(224, 224, 224); transform-origin: 374.235px 225.04px;" id="el5vv9r7tleii" class="animable"></rect><polygon points="543.35 337.55 525.89 324.12 520.76 331.09 537.55 344.78 543.35 337.55" style="fill: rgb(224, 224, 224); transform-origin: 532.055px 334.45px;" id="elty6148gljql" class="animable"></polygon><polygon points="534.31 349.07 517.55 334.77 512.07 341.48 528.15 356 534.31 349.07" style="fill: rgb(224, 224, 224); transform-origin: 523.19px 345.385px;" id="el2kkc3axbf6q" class="animable"></polygon><polygon points="524.72 360.05 508.76 344.87 502.93 351.26 518.38 366.83 524.72 360.05" style="fill: rgb(224, 224, 224); transform-origin: 513.825px 355.85px;" id="eldbb7xx9scy" class="animable"></polygon><polygon points="514.87 370.26 499.86 354.56 493.73 360.68 508.26 376.75 514.87 370.26" style="fill: rgb(224, 224, 224); transform-origin: 504.3px 365.655px;" id="elseniqvw3v5" class="animable"></polygon><path d="M487.08,79.22l-.19-.16-.5-.49-1.91-1.93c-.83-.83-1.8-1.9-3.06-3l-2-1.79c-.7-.64-1.43-1.32-2.26-2-1.66-1.3-3.38-2.83-5.42-4.24l-3.1-2.24-3.4-2.22a137.71,137.71,0,0,0-15.83-8.68,129.78,129.78,0,0,0-18.48-7l.27-.13-7.55,17.73c-.92,2.12-1.66,3.81-2.18,5l-.59,1.32a2.16,2.16,0,0,1-.23.44,2.64,2.64,0,0,1,.16-.47c.13-.34.3-.79.52-1.35.5-1.22,1.19-2.92,2.06-5.07,1.81-4.38,4.36-10.53,7.38-17.8l.08-.2.19.06a124.26,124.26,0,0,1,18.59,7,133.82,133.82,0,0,1,15.87,8.74l3.4,2.25,3.1,2.28c2,1.42,3.75,3,5.4,4.29.82.66,1.55,1.35,2.24,2l2,1.83c1.25,1.11,2.2,2.2,3,3.06l1.84,2,.46.52C487,79.14,487.09,79.21,487.08,79.22Z" style="fill: rgb(224, 224, 224); transform-origin: 453.865px 62.08px;" id="eluc7ys744r4" class="animable"></path><polygon points="453 42 442.39 61.3 454.2 67.92 465.77 49.18 453 42" style="fill: rgb(224, 224, 224); transform-origin: 454.08px 54.96px;" id="elaictx7avz74" class="animable"></polygon><polygon points="465.77 49.18 454.2 67.92 461.65 72.31 473.56 54.21 465.77 49.18" style="fill: rgb(224, 224, 224); transform-origin: 463.88px 60.745px;" id="el5tsae2io7ux" class="animable"></polygon><polygon points="478.08 56.98 465.51 75.07 472.72 79.86 485.75 62.21 478.08 56.98" style="fill: rgb(224, 224, 224); transform-origin: 475.63px 68.42px;" id="elyshjpnipfb" class="animable"></polygon><polygon points="489.68 65.16 476.45 82.39 483.42 87.51 497.1 70.71 489.68 65.16" style="fill: rgb(224, 224, 224); transform-origin: 486.775px 76.335px;" id="eler1qzpb2ne" class="animable"></polygon><polygon points="179.75 247.4 201.77 246.76 201.34 238.12 179.41 238.13 179.75 247.4" style="fill: rgb(224, 224, 224); transform-origin: 190.59px 242.76px;" id="el58xrbktzard" class="animable"></polygon><polygon points="179.44 233.22 201.16 233.62 201.14 224.96 179.49 223.95 179.44 233.22" style="fill: rgb(224, 224, 224); transform-origin: 190.3px 228.785px;" id="elrpcrd93aphi" class="animable"></polygon><circle cx="545.01" cy="396.46" r="5.22" style="fill: rgb(255, 255, 255); transform-origin: 545.01px 396.46px;" id="el0atylzin33se" class="animable"></circle><path d="M539.79,396.46s0-.11,0-.33a3.93,3.93,0,0,1,.1-1,5.21,5.21,0,0,1,1.89-3,5.35,5.35,0,0,1,5.13-.83,5.26,5.26,0,0,1,2.54,1.89,5.43,5.43,0,0,1,1.08,3.23,5.52,5.52,0,0,1-1.07,3.24,5.41,5.41,0,0,1-7.68,1.06,5.2,5.2,0,0,1-1.89-3,3.81,3.81,0,0,1-.1-1c0-.22,0-.34,0-.34s0,.47.26,1.25a5.19,5.19,0,0,0,1.91,2.76,5,5,0,1,0,0-8,5.17,5.17,0,0,0-1.91,2.75C539.83,396,539.84,396.47,539.79,396.46Z" style="fill: rgb(224, 224, 224); transform-origin: 545.159px 396.422px;" id="eltr4gwprs7v" class="animable"></path><circle cx="275.6" cy="131.79" r="7.6" style="fill: rgb(224, 224, 224); transform-origin: 275.6px 131.79px;" id="elehxqvfz9wj" class="animable"></circle></g><g id="freepik--character-1--inject-101" class="animable" style="transform-origin: 200.838px 344.985px;"><rect x="61.3" y="262.55" width="266.95" height="198.26" rx="14.88" style="fill: rgb(255, 255, 255); transform-origin: 194.775px 361.68px;" id="elnu5yfe1xgl" class="animable"></rect><path d="M73.92,262.55H314.08a14.75,14.75,0,0,1,14.75,14.75v20a0,0,0,0,1,0,0h-267a0,0,0,0,1,0,0V274.59A12,12,0,0,1,73.92,262.55Z" style="fill: rgb(224, 224, 224); transform-origin: 195.33px 279.925px;" id="elhr5j7gne52" class="animable"></path><path d="M81.8,278.84a3.93,3.93,0,1,1-3.93-3.93A3.93,3.93,0,0,1,81.8,278.84Z" style="fill: rgb(255, 255, 255); transform-origin: 77.87px 278.84px;" id="ellp5pavf8v5o" class="animable"></path><path d="M93.63,278.84a3.93,3.93,0,1,1-3.93-3.93A3.93,3.93,0,0,1,93.63,278.84Z" style="fill: rgb(255, 255, 255); transform-origin: 89.7px 278.84px;" id="el9ppqbaqb08d" class="animable"></path><path d="M105.47,278.84a3.93,3.93,0,1,1-3.93-3.93A3.93,3.93,0,0,1,105.47,278.84Z" style="fill: rgb(255, 255, 255); transform-origin: 101.54px 278.84px;" id="elcz51xni49ei" class="animable"></path><path d="M314,460.82l.59-.05a10.8,10.8,0,0,0,1.73-.18,14.87,14.87,0,0,0,12.19-11.68,40.41,40.41,0,0,0,.28-7.08c0-2.54,0-5.25,0-8.11,0-22.92,0-56.08-.08-97.05q0-15.36,0-32.15,0-8.38,0-17.11v-8.8a18.89,18.89,0,0,0-.37-4.38,14.8,14.8,0,0,0-4.39-7.59,14,14,0,0,0-3.73-2.49,14.39,14.39,0,0,0-4.35-1.26,44.18,44.18,0,0,0-4.62-.12h-19l-39.58,0-176.24,0H74.93c-.48,0-1,0-1.44.08a13.31,13.31,0,0,0-2.79.65,12.7,12.7,0,0,0-7.82,7.79,12.54,12.54,0,0,0-.65,2.77,24.62,24.62,0,0,0-.1,2.86v23q0,22.85,0,45c0,29.48,0,57.92,0,85V445c0,.84,0,1.65.08,2.46l.18,1.21c.07.4.2.79.29,1.18a14.61,14.61,0,0,0,5.39,7.83,15.12,15.12,0,0,0,4.24,2.19,16.54,16.54,0,0,0,4.69.7h37.33l67,0,97,.08,26.38,0,6.86,0,2.34,0-2.34,0-6.86,0-26.38,0-97,.08-67,0L77,461a16.92,16.92,0,0,1-4.83-.72A15.29,15.29,0,0,1,62.22,450c-.09-.41-.22-.81-.29-1.23l-.19-1.24c-.05-.84-.1-1.68-.09-2.51V429.94c0-27.09,0-55.53,0-85V277a26.06,26.06,0,0,1,.1-2.92,12.77,12.77,0,0,1,.68-2.87,13.19,13.19,0,0,1,8.13-8.11,14.21,14.21,0,0,1,2.9-.67c.49-.05,1-.05,1.48-.08h1.47l176.24,0h58.54a42.91,42.91,0,0,1,4.67.13,14.72,14.72,0,0,1,4.47,1.29,14.3,14.3,0,0,1,3.84,2.58,14.5,14.5,0,0,1,2.86,3.57,14.77,14.77,0,0,1,1.65,4.23,18.8,18.8,0,0,1,.37,4.47v8.8q0,8.71,0,17.11,0,16.77,0,32.15c0,41-.06,74.13-.08,97.05,0,2.86,0,5.57,0,8.11a39.78,39.78,0,0,1-.32,7.11,14.94,14.94,0,0,1-6,9.15,14.66,14.66,0,0,1-6.32,2.55,11.59,11.59,0,0,1-1.74.16Z" style="fill: rgb(38, 50, 56); transform-origin: 195.353px 361.667px;" id="elqxg07c46fsa" class="animable"></path><path d="M160.56,245.66c-3.3-2.1-4.1-7-2.31-10.46s5.6-5.6,9.46-6.22a18,18,0,0,1,15.54,5.15c2.13,2.19,3.86,5.06,6.76,6.07,2.54.88,5.36.08,8,.43,3.58.47,6.65,3,8.49,6.12a26.21,26.21,0,0,1,3,10.32c.39,3.29.65,6.91,2.93,9.31s5.75,2.84,8.52,4.5a11.65,11.65,0,0,1,3.46,15.92c-1.1,1.6-2.67,3.06-2.8,5-.12,1.76,1,3.34,1.56,5,1.38,4.34-2.18,9.5-6.73,9.76-2.3.13-4.76-.76-6.81.27s-2.81,3.48-4.12,5.36a9.84,9.84,0,0,1-12,3.09c-1.69-.83-3.29-2.19-5.16-2.07s-3.35,1.73-5.2,2.09c-2.41.46-4.7-1.32-6.14-3.31s-2.43-4.35-4.27-6c-2.4-2.14-5.78-2.67-8.82-3.72a24.9,24.9,0,0,1-14.07-34.88" style="fill: rgb(38, 50, 56); transform-origin: 186.656px 272.472px;" id="el8v9lccqt7dc" class="animable"></path><path d="M195.56,288.91a6.87,6.87,0,0,1,2.69-1.77H198a3.7,3.7,0,0,1,.58-.1,2.66,2.66,0,0,1,2.09.26h0a4.94,4.94,0,0,1,2.72,2.36,5.89,5.89,0,0,1-.69,6.06,4.5,4.5,0,0,1-8.25-1.54A5.6,5.6,0,0,1,195.56,288.91Z" style="fill: rgb(69, 90, 100); transform-origin: 199.069px 292.393px;" id="el7iv32jzgkk5" class="animable"></path><path d="M151.71,320.27l-3.31-60.71a5.47,5.47,0,0,1,4.74-5.69L182,245.7c9.28-1.25,15.79,10,16.64,19.36,1,10.35,1.7,23,.69,30.81-2,15.64-14.84,18-14.84,18s-.09,3.94,0,9.6l-5.89,19.23Z" style="fill: rgb(255, 191, 157); transform-origin: 174.108px 294.152px;" id="el7brq0bqm4t4" class="animable"></path><path d="M194.61,278.3a2,2,0,0,1-1.87,2.07,1.9,1.9,0,0,1-2.1-1.75,2,2,0,0,1,1.86-2.07A1.91,1.91,0,0,1,194.61,278.3Z" style="fill: rgb(38, 50, 56); transform-origin: 192.625px 278.46px;" id="elswpq798l5k" class="animable"></path><path d="M196.07,271.74c-.24.26-1.79-.81-3.94-.75s-3.69,1.19-3.93.93.12-.59.79-1.11a5.54,5.54,0,0,1,3.14-1.06,5.3,5.3,0,0,1,3.14.91C196,271.15,196.18,271.62,196.07,271.74Z" style="fill: rgb(38, 50, 56); transform-origin: 192.113px 270.853px;" id="elf2f4dvgfu8" class="animable"></path><path d="M175.58,278.6a2,2,0,0,1-1.87,2.07,1.91,1.91,0,0,1-2.11-1.74,2,2,0,0,1,1.87-2.07A1.92,1.92,0,0,1,175.58,278.6Z" style="fill: rgb(38, 50, 56); transform-origin: 173.59px 278.766px;" id="eldhq9760gwqg" class="animable"></path><path d="M175,272.74c-.24.26-1.79-.81-3.93-.74s-3.69,1.18-3.93.92.11-.59.79-1.1a5.44,5.44,0,0,1,3.14-1.07,5.3,5.3,0,0,1,3.14.91C174.84,272.15,175.08,272.62,175,272.74Z" style="fill: rgb(38, 50, 56); transform-origin: 171.04px 271.853px;" id="ely3y6a763d0s" class="animable"></path><path d="M183.21,288.45a14.36,14.36,0,0,1,3.47-.73c.55-.07,1.06-.2,1.15-.57a2.84,2.84,0,0,0-.42-1.62l-1.74-4.13c-2.42-5.88-4.19-10.73-3.95-10.82s2.39,4.59,4.81,10.48c.59,1.45,1.15,2.83,1.68,4.15a3.2,3.2,0,0,1,.34,2.15,1.39,1.39,0,0,1-.88.83,3.73,3.73,0,0,1-.92.15A14.23,14.23,0,0,1,183.21,288.45Z" style="fill: rgb(38, 50, 56); transform-origin: 185.153px 279.546px;" id="elr4du3ea2oc" class="animable"></path><path d="M184.48,313.87a37.36,37.36,0,0,1-20.07-5s4.51,11.58,20,9.68Z" style="fill: rgb(255, 154, 108); transform-origin: 174.445px 313.815px;" id="el3b4ork7wf8q" class="animable"></path><path d="M183,293.56a5.28,5.28,0,0,0-4.42-2.18,3.41,3.41,0,0,0-2.78,1.62,3.15,3.15,0,0,0,3.67,4.62,7.8,7.8,0,0,0,3.11-2,2.53,2.53,0,0,0,.65-.83,1.1,1.1,0,0,0-.11-1.08" style="fill: rgb(255, 154, 108); transform-origin: 179.336px 294.576px;" id="el03nriocz6t33" class="animable"></path><path d="M176.93,290.11c.35,0,.42,2.3,2.46,3.9s4.52,1.27,4.55,1.6c0,.15-.54.47-1.59.53a5.87,5.87,0,0,1-3.79-1.2,5.06,5.06,0,0,1-1.92-3.28C176.53,290.69,176.77,290.1,176.93,290.11Z" style="fill: rgb(38, 50, 56); transform-origin: 180.276px 293.127px;" id="elmtczqxfyup" class="animable"></path><path d="M175.66,263.87c-.2.59-2.35.37-4.86.75s-4.53,1.12-4.88.6c-.16-.24.18-.8,1-1.39a8.24,8.24,0,0,1,3.59-1.38,8.39,8.39,0,0,1,3.83.34C175.26,263.14,175.74,263.59,175.66,263.87Z" style="fill: rgb(38, 50, 56); transform-origin: 170.775px 263.882px;" id="ellqmofpdhec" class="animable"></path><path d="M195.1,264.37c-.36.49-1.86,0-3.64.06s-3.28.42-3.64-.08c-.16-.25.07-.74.71-1.22a5.06,5.06,0,0,1,2.94-.89,5.12,5.12,0,0,1,2.93.9C195,263.63,195.26,264.12,195.1,264.37Z" style="fill: rgb(38, 50, 56); transform-origin: 191.459px 263.425px;" id="elnav6x19lav" class="animable"></path><path d="M209.13,261.79a10.72,10.72,0,0,0-4.11-5.9c-1.12-.73-2.42-1.17-3.47-2-2.25-1.82-2.77-5-4.16-7.51a11.75,11.75,0,0,0-8.95-6c-3.09-.31-6.26.61-9.27-.14-2.22-.56-4.17-2-6.42-2.44-4.38-.83-8.46,2.32-11.64,5.45,0,3.14,2.49,5.24,4.9,7.25a10.87,10.87,0,0,0,8.81,2.33c2.4-.44,5-1.65,7.1-.37s2.27,4.63,4.2,6.31c2.77,2.4,7.16.14,10.67,1.19,2.71.8,4.4,3.39,6.2,5.57s4.5,4.25,7.21,3.45A31.89,31.89,0,0,0,209.13,261.79Z" style="fill: rgb(38, 50, 56); transform-origin: 185.655px 253.41px;" id="elugajgofgy6" class="animable"></path><path d="M176.2,248.52c-2-.56-6-1.84-7-3.54-2.29-3.71-6.33-6.23-10.45-6a9.91,9.91,0,0,0-8.93,7.84,14.27,14.27,0,0,0-12.26,7.89,14.79,14.79,0,0,0-.78,1.83,10.86,10.86,0,0,0-.72,9.11c.68,1.77,1.83,3.75.92,5.42s-3.28,1.75-5.11,2.38a7.19,7.19,0,0,0-4.53,8c.25,1.18.81,2.36.57,3.55s-1.31,2.1-2.12,3.06A9,9,0,0,0,131,302.68c1.39.26,2.91.2,4.12.94,1.39.86,2,2.53,3,3.83a7.72,7.72,0,0,0,8.38,2.62,7.33,7.33,0,0,0,1.68-.84c.94,1.3,2.41,2.17,4.92,2.17l-.58-32.82a2.74,2.74,0,0,0,2,1.56c5.27,1.19,6-9.66,4.87-12.61a30.54,30.54,0,0,0,5.28-5.55c1.46-2.15,2.74-8,2.43-10.66C169,251.44,177.06,248.77,176.2,248.52Z" style="fill: rgb(38, 50, 56); transform-origin: 149.976px 275.183px;" id="elz71y70kaqeq" class="animable"></path><path d="M154,281.25c-.16-3.33-4.25-4.05-7.14-2.38-1.58.92-2.8,2.77-2.65,6.31.39,9.44,9.79,7.1,9.79,6.83S154.16,285.16,154,281.25Z" style="fill: rgb(255, 191, 157); transform-origin: 149.134px 285.232px;" id="el8522zpwni1a" class="animable"></path><path d="M150.93,288.55s-.16.13-.43.26a1.65,1.65,0,0,1-1.23.08c-1-.33-1.92-1.87-2-3.58a5.38,5.38,0,0,1,.36-2.37,1.91,1.91,0,0,1,1.18-1.31.83.83,0,0,1,1,.41c.14.26.09.45.14.46s.2-.17.1-.55a1,1,0,0,0-.39-.58,1.28,1.28,0,0,0-.92-.2A2.31,2.31,0,0,0,147,282.7a5.64,5.64,0,0,0-.46,2.66c.14,1.9,1.18,3.64,2.57,4a1.76,1.76,0,0,0,1.49-.31C150.92,288.78,151,288.57,150.93,288.55Z" style="fill: rgb(255, 154, 108); transform-origin: 148.74px 285.282px;" id="eli8galuooepj" class="animable"></path><path d="M163.2,246a5.47,5.47,0,0,0-1.89,1.58c-.93,1.28-1.29,3.75-.69,6.53l0,.24-.24.05a9.15,9.15,0,0,0-6.08,5.36,7,7,0,0,0-.49,2.31,13.74,13.74,0,0,0,.3,2.49,20.54,20.54,0,0,1,.36,2.69,4.5,4.5,0,0,1-.75,2.79c-1.18,1.79-3.07,2.67-4.69,3.52a15.76,15.76,0,0,0-4.38,2.87,11.79,11.79,0,0,0-3.53,7.92,12.28,12.28,0,0,0,1.24,5.83c.63,1.29,1.16,1.91,1.1,2a2.45,2.45,0,0,1-.4-.43,9,9,0,0,1-.93-1.4,11.91,11.91,0,0,1-1.48-6,12.13,12.13,0,0,1,3.56-8.33,16.18,16.18,0,0,1,4.52-3c1.63-.85,3.41-1.73,4.43-3.3s.58-3.31.3-5a14.3,14.3,0,0,1-.29-2.62,7.41,7.41,0,0,1,.55-2.52,9.57,9.57,0,0,1,6.55-5.62l-.18.3c-.56-2.91-.12-5.47,1-6.81a4,4,0,0,1,1.48-1.2C163,246,163.19,245.94,163.2,246Z" style="fill: rgb(69, 90, 100); transform-origin: 151.924px 269.079px;" id="el6ogw7wbxugm" class="animable"></path><path d="M147.4,292.09a6.87,6.87,0,0,1,2.69-1.77h-.21a5.4,5.4,0,0,1,.58-.1,2.73,2.73,0,0,1,2.1.26h0a5,5,0,0,1,2.71,2.36,5.87,5.87,0,0,1-.69,6.06,4.49,4.49,0,0,1-8.24-1.54A5.57,5.57,0,0,1,147.4,292.09Z" style="fill: rgb(69, 90, 100); transform-origin: 150.947px 295.577px;" id="elrnhcens082" class="animable"></path><path d="M291.82,330.32s7.41-10.17,10-10.48,19,.31,21.29,0,15.24-6,15.24-6,2.3.81,2,3S325.71,327.11,324,327.41s-15.53,1.37-15.53,1.37l-8.37,13.15Z" style="fill: rgb(255, 191, 157); transform-origin: 316.098px 327.885px;" id="elp742tld9no" class="animable"></path><path d="M292.73,327.08l-31.29,30.84L217,330.11a18.92,18.92,0,0,0-8.26-2.78l-17.44-1.79-7-6.53-5.69,18.77-28-21.55L145.44,326l-18.63,8.93,17.86,87.77s-.11,1.37-3.94,12.16c-1.14,3.23-5.47,19.14-4.72,25.69l48.32.41,50.21-.25-9-30.33-5.33-23.44c1.35-28.72,2-33.32.64-40.38h0S250,383.66,264.39,385.3c2.25.26,8.5-2.74,11.45-6.21C287.67,365.18,308,340.22,308,340.22Z" style="fill: #7E4BDC; transform-origin: 217.405px 388.595px;" id="el47zc1dfey5s" class="animable"></path><path d="M137.18,378.82l-7.57,27.93,51,27.12L170.83,454l-60.34-24a18.23,18.23,0,0,1-8.38-6.49c-2.4-3.49-4.2-7.69-1.82-15.45l13-48.72c.83-3.09,2.24-8,3.68-12a23.88,23.88,0,0,1,6.5-9.91,22.87,22.87,0,0,1,3.36-2.5" style="fill: #7E4BDC; transform-origin: 139.89px 394.465px;" id="el1rwtcij8zto" class="animable"></path><path d="M126.81,334.9l-.6.41c-.4.27-1,.68-1.71,1.26a22.5,22.5,0,0,0-5.28,6.13c-1.85,3-3,7.17-4.48,11.93S112,364.92,110.35,371l-5.26,19.84q-1.41,5.34-2.93,11.05-.75,2.85-1.53,5.78a26.14,26.14,0,0,0-1.19,6,14.15,14.15,0,0,0,.87,6.09,18.57,18.57,0,0,0,3.37,5.39,18.08,18.08,0,0,0,5.25,3.92c1,.51,2,.9,3.11,1.33l3.19,1.27,26.5,10.53,29.19,11.61-.31.12c3.38-7,6.64-13.68,9.76-20.09l.1.29-50.93-27.19-.1-.05,0-.12,5.64-20.57,1.52-5.45c.18-.61.31-1.07.4-1.4s.15-.47.15-.47,0,.16-.11.48-.2.8-.36,1.41c-.33,1.25-.81,3.09-1.44,5.47l-5.51,20.61-.07-.17,51,27.06.19.1-.09.19-9.74,20.1-.1.2-.21-.08-29.19-11.6-26.5-10.54-3.2-1.27c-1-.43-2.13-.82-3.15-1.35a18.84,18.84,0,0,1-5.38-4,17.76,17.76,0,0,1-2-2.64,17.22,17.22,0,0,1-1.48-2.9,14.74,14.74,0,0,1-.89-6.28,27,27,0,0,1,1.21-6.05c.52-1.95,1-3.88,1.55-5.77q1.52-5.7,3-11.05c1.91-7.12,3.69-13.76,5.32-19.82s3-11.55,4.46-16.34,2.69-8.93,4.58-11.95a22.17,22.17,0,0,1,5.39-6.1A16.59,16.59,0,0,1,126.81,334.9Z" style="fill: rgb(38, 50, 56); transform-origin: 139.864px 394.615px;" id="el8qqeaf49edd" class="animable"></path><path d="M232.51,449,218,442l-28.33-2.25-9.52-4.95-6.54,14s14.39,8.67,18.28,9l23.82-.72,12.45,1.31Z" style="fill: rgb(255, 191, 157); transform-origin: 203.06px 446.595px;" id="el2aohhe78u0j" class="animable"></path><path d="M139.75,374.74c-.1,0,.33-1.88.51-4.92a37.76,37.76,0,0,0-.08-5.36,41.92,41.92,0,0,0-1.13-6.45,42.59,42.59,0,0,0-2.24-6.17,41.17,41.17,0,0,0-2.6-4.72c-1.68-2.57-3-4-2.91-4.06a7.33,7.33,0,0,1,.94,1,13.56,13.56,0,0,1,1,1.22c.37.49.82,1,1.24,1.69a34.46,34.46,0,0,1,2.73,4.71,36,36,0,0,1,3.41,12.78,34.4,34.4,0,0,1,0,5.41c0,.77-.16,1.46-.24,2.06a15.36,15.36,0,0,1-.28,1.55A7.35,7.35,0,0,1,139.75,374.74Z" style="fill: rgb(38, 50, 56); transform-origin: 136.011px 358.9px;" id="elfz1g871vdvc" class="animable"></path><path d="M130.06,407c0,.08-.83-.08-2.14-.1a15.27,15.27,0,0,0-5,.8,15,15,0,0,0-4.44,2.45c-1,.82-1.57,1.44-1.63,1.38a5.89,5.89,0,0,1,1.4-1.65,12.81,12.81,0,0,1,4.51-2.65,13,13,0,0,1,5.19-.68A5.62,5.62,0,0,1,130.06,407Z" style="fill: rgb(38, 50, 56); transform-origin: 123.455px 409.025px;" id="el1jz9idevvw5" class="animable"></path><path d="M213.74,346.46a8.28,8.28,0,0,1,.93,1.3l.47.71.49.9a21.43,21.43,0,0,1,1.13,2.21l.6,1.31c.18.48.37,1,.57,1.47.41,1,.72,2.12,1.1,3.27a64.71,64.71,0,0,1,1.66,7.74,89.9,89.9,0,0,1,.84,14.33c0,1.84-.09,3.32-.16,4.35a8.71,8.71,0,0,1-.16,1.58,9.81,9.81,0,0,1,0-1.59c0-1,0-2.51,0-4.34a105.68,105.68,0,0,0-1-14.25,67.66,67.66,0,0,0-1.6-7.68c-.37-1.15-.65-2.27-1-3.26-.18-.51-.36-1-.53-1.46s-.38-.9-.57-1.32c-.34-.85-.72-1.58-1-2.23l-.45-.9c-.15-.27-.29-.51-.43-.74A9.3,9.3,0,0,1,213.74,346.46Z" style="fill: rgb(38, 50, 56); transform-origin: 217.645px 366.045px;" id="ellakfwe7nijn" class="animable"></path><path d="M177.91,339.3a1.57,1.57,0,0,1-.39-.16c-.24-.12-.6-.3-1.06-.55a23.75,23.75,0,0,1-3.73-2.49l.26,0A61.09,61.09,0,0,0,167.05,348l-.14.37-.28-.28-3.81-3.82c-4.85-4.86-9.22-9.29-12.36-12.51l-3.71-3.83-1-1.07a2.05,2.05,0,0,1-.32-.39,1.9,1.9,0,0,1,.4.32c.28.27.63.6,1.06,1l3.82,3.72c3.21,3.15,7.62,7.54,12.46,12.4l3.81,3.83-.42.09a56,56,0,0,1,6.14-11.94l.11-.17.14.13a27.94,27.94,0,0,0,3.59,2.58A14.21,14.21,0,0,1,177.91,339.3Z" style="fill: rgb(38, 50, 56); transform-origin: 161.67px 337.42px;" id="elqgtfzi52rh" class="animable"></path><path d="M191,325.83a5.35,5.35,0,0,1,.09,1.27,23.94,23.94,0,0,1-.24,3.47,26.68,26.68,0,0,1-4,10.72l-.3.47-.21.32-.22-.31a39.76,39.76,0,0,1-4.74-8.55h.36c-.68,1.57-1.26,2.89-1.71,3.92a7.69,7.69,0,0,1-.71,1.41,7.8,7.8,0,0,1,.5-1.5c.41-1.05.93-2.39,1.56-4l.17-.45.19.45a44.58,44.58,0,0,0,4.8,8.4h-.42c.09-.15.19-.31.3-.46a28.42,28.42,0,0,0,4.07-10.49C191,327.65,190.89,325.83,191,325.83Z" style="fill: rgb(38, 50, 56); transform-origin: 185.208px 333.955px;" id="elmt5773za2jc" class="animable"></path><path d="M197.93,424.24a5.27,5.27,0,0,1-.15-.87c-.08-.62-.18-1.46-.32-2.51-.26-2.23-.63-5.37-1.09-9.24-.94-7.79-2.22-18.57-4.49-30.33-1.15-5.88-2.48-11.43-3.87-16.42-.76-2.48-1.42-4.86-2.19-7-.37-1.09-.71-2.16-1.07-3.16l-1.09-2.88c-.66-1.85-1.38-3.47-2-4.91l-.84-2-.77-1.66-1-2.3a6.32,6.32,0,0,1-.34-.82,5.12,5.12,0,0,1,.43.77c.28.56.66,1.32,1.14,2.26l.81,1.64c.29.61.57,1.28.89,2,.62,1.43,1.37,3.05,2.06,4.89.35.92.73,1.88,1.12,2.88s.72,2.07,1.1,3.16c.79,2.17,1.47,4.55,2.24,7,1.42,5,2.77,10.56,3.92,16.45,2.28,11.78,3.5,22.58,4.35,30.39.41,3.91.72,7.07.93,9.26q.14,1.59.21,2.52A7.24,7.24,0,0,1,197.93,424.24Z" style="fill: rgb(38, 50, 56); transform-origin: 188.323px 382.19px;" id="elv3hmqq7rlv" class="animable"></path><path d="M212.05,412.14a8,8,0,0,1-1.57,0c-1,0-2.47-.06-4.27-.14-3.61-.17-8.58-.53-14.06-1.13s-10.41-1.36-14-2c-1.78-.31-3.22-.58-4.2-.79a11,11,0,0,1-1.53-.37,7.7,7.7,0,0,1,1.56.17l4.23.63c3.56.53,8.49,1.22,14,1.83s10.43,1,14,1.28l4.26.31A8.1,8.1,0,0,1,212.05,412.14Z" style="fill: rgb(38, 50, 56); transform-origin: 192.235px 409.944px;" id="el1fwod741ws9" class="animable"></path><path d="M207.35,426.19a7.34,7.34,0,0,1-1.28-.41l-3.4-1.25c-2.87-1-6.85-2.48-11.29-3.93S182.89,418,180,417.11l-3.49-1a7.15,7.15,0,0,1-1.26-.42,7.17,7.17,0,0,1,1.31.23c.84.18,2.05.46,3.53.84,3,.75,7.05,1.9,11.5,3.35S200,423,202.8,424.19c1.42.57,2.57,1.05,3.35,1.4A6.15,6.15,0,0,1,207.35,426.19Z" style="fill: rgb(38, 50, 56); transform-origin: 191.3px 420.94px;" id="elk1k5zttrvc" class="animable"></path><path d="M263.78,370.75a6,6,0,0,1-1-1.71,20.22,20.22,0,0,1-1.44-4.55,20.66,20.66,0,0,1-.33-4.77,5.81,5.81,0,0,1,.3-2,52,52,0,0,0,.54,6.62A51.51,51.51,0,0,0,263.78,370.75Z" style="fill: rgb(38, 50, 56); transform-origin: 262.384px 364.235px;" id="elz46v795bcq" class="animable"></path><path d="M311,391.88l-81.66.66c-2.65,0-5.18,1.28-5.58,3.9L214.86,456H172.8a2.45,2.45,0,0,0,0,4.9H307.13L316.32,398A5.36,5.36,0,0,0,311,391.88Z" style="fill: rgb(224, 224, 224); transform-origin: 243.362px 426.39px;" id="elnrfre4r9bbb" class="animable"></path><path d="M311.14,391.88a4.21,4.21,0,0,1,1.29.12,5.41,5.41,0,0,1,3.12,2.07,5.32,5.32,0,0,1,1,2.61,14.19,14.19,0,0,1-.3,3.35l-1.17,8.29c-1.8,12.48-4.39,30.46-7.58,52.57l0,.22h-.21l-130.33.07h-3.51a3.26,3.26,0,0,1-1.85-.35,2.77,2.77,0,0,1,0-4.86,3.4,3.4,0,0,1,1.84-.35H215l-.31.27c3.21-21.31,6.21-41.19,8.89-59a4.69,4.69,0,0,1,1.51-3.11,6.11,6.11,0,0,1,3.13-1.38,26.15,26.15,0,0,1,3.29-.11l3.21,0,12.29-.08,21.85-.14,31.1-.16h10.47c.48,0,.73,0,.73,0l-.73,0-2.15,0-8.32.12-31.1.35-21.85.21-12.29.12-3.21,0a26.2,26.2,0,0,0-3.21.12,5.5,5.5,0,0,0-2.85,1.25A4.13,4.13,0,0,0,224.1,397c-2.66,17.84-5.62,37.73-8.8,59.05l0,.27H173.42a2.77,2.77,0,0,0-1.52.26,2.14,2.14,0,0,0-1,2.59,2.17,2.17,0,0,0,1,1.13,2.8,2.8,0,0,0,1.53.27h3.51l130.33.07-.25.22c3.27-22.1,5.94-40.07,7.79-52.54.46-3.11.88-5.87,1.24-8.28a15.39,15.39,0,0,0,.33-3.31,5.19,5.19,0,0,0-.94-2.53,5.32,5.32,0,0,0-3-2.09A11.75,11.75,0,0,0,311.14,391.88Z" style="fill: rgb(38, 50, 56); transform-origin: 243.358px 426.535px;" id="elxukmy6sjxy" class="animable"></path><path d="M218.29,460.31c.12,0,2.72-15.14,5.8-33.85s5.51-33.9,5.39-33.92-2.71,15.14-5.8,33.85S218.18,460.29,218.29,460.31Z" style="fill: rgb(38, 50, 56); transform-origin: 223.885px 426.425px;" id="elj9lfm0lnsnc" class="animable"></path><circle cx="267.46" cy="427.53" r="5.11" style="fill: rgb(255, 255, 255); transform-origin: 267.46px 427.53px;" id="el8xee1yizibl" class="animable"></circle></g><g id="freepik--speech-bubble-2--inject-101" class="animable" style="transform-origin: 371.367px 234.466px;"><path d="M436,160.33H306.87a10.56,10.56,0,0,0-10.56,10.56V276a10.56,10.56,0,0,0,10.56,10.56H323.5v21.69l21.73-21.69H436A10.56,10.56,0,0,0,446.51,276V170.89A10.56,10.56,0,0,0,436,160.33Z" style="fill: rgb(255, 255, 255); transform-origin: 371.41px 234.29px;" id="elpbhdjigt9ie" class="animable"></path><path d="M436,160.33s.38,0,1.14,0a10.82,10.82,0,0,1,3.22.86,10.62,10.62,0,0,1,4.22,3.4,11,11,0,0,1,1.59,3.11,12.56,12.56,0,0,1,.48,3.95c0,11.26,0,27.62.08,48.06,0,10.23,0,21.48,0,33.62q0,9.11,0,18.87v2.44c0,.82,0,1.65-.06,2.49a10.81,10.81,0,0,1-5.44,8.25,10.77,10.77,0,0,1-5,1.37l-91,0,.18-.08-21.73,21.69-.44.45V286.58l.26.26H307.66a11.18,11.18,0,0,1-7-1.94,10.89,10.89,0,0,1-4.21-5.83,11.86,11.86,0,0,1-.44-3.59V251c0-18.4,0-36.16,0-53.07q0-12.69,0-24.72c0-1,0-2,0-3a9.89,9.89,0,0,1,.62-3,10.79,10.79,0,0,1,8.86-7,27.93,27.93,0,0,1,2.88-.08h2.83l41.84,0,60.59.08,16.47.05,4.28,0,1.46,0-1.46,0-4.28,0-16.47.05-60.59.08-41.84,0h-2.83a26.52,26.52,0,0,0-2.83.08,10.36,10.36,0,0,0-8.49,6.73c-.74,1.82-.62,3.81-.62,5.81q0,12,0,24.72c0,16.91,0,34.67,0,53.07v13.93q0,3.51,0,7v3.55a11,11,0,0,0,.42,3.44,10.38,10.38,0,0,0,4,5.56,10.78,10.78,0,0,0,6.67,1.84h16.1v21.95l-.44-.18c7.46-7.46,14.82-14.79,21.73-21.69l.07-.07H436.2A10.31,10.31,0,0,0,441,285a10.48,10.48,0,0,0,3.59-3.35,10.59,10.59,0,0,0,1.64-4.55c.06-.8.06-1.62.06-2.45v-2.44q0-9.76,0-18.87c0-12.14,0-23.39,0-33.62,0-20.44.06-36.8.08-48.06a11.94,11.94,0,0,0-.46-3.9,10.72,10.72,0,0,0-1.55-3.08,10.58,10.58,0,0,0-4.14-3.4A11.21,11.21,0,0,0,436,160.33Z" style="fill: rgb(38, 50, 56); transform-origin: 371.367px 234.466px;" id="elzgwlkynhdso" class="animable"></path><path d="M353.1,188.47a40.62,40.62,0,0,1,9.8-4.19l2-9.55,16.39-.28,2.36,9.47a40.61,40.61,0,0,1,9.94,3.85l8.28-5.34,11.8,11.2L408.55,202a38.7,38.7,0,0,1,4.26,9.65l9.7,2,.29,16.13-9.62,2.33a39.45,39.45,0,0,1-3.91,9.78l5.42,8.16-11.38,11.6-8.47-5.05a40.62,40.62,0,0,1-9.8,4.19l-2,9.55-16.39.28-2.36-9.47a40.61,40.61,0,0,1-9.94-3.85L346,262.59l-11.79-11.2,5.14-8.34a38.7,38.7,0,0,1-4.26-9.65l-9.7-2-.29-16.13,9.62-2.33a39.3,39.3,0,0,1,3.91-9.78L333.24,195l11.39-11.6,8.47,5.05Zm10.43,20A17.16,17.16,0,0,0,364,235.9a17.79,17.79,0,0,0,21.42-.38,17.15,17.15,0,0,0-.49-27.46A17.81,17.81,0,0,0,363.53,208.44Z" style="fill: #7E4BDC; transform-origin: 373.95px 222.535px;" id="elibc1ixgzsc" class="animable"></path><path d="M385.89,274.55H364.42a2.35,2.35,0,0,1-2.3-1.9L360.85,266a1.37,1.37,0,0,0-.84-1l-4.89-1.84a1.34,1.34,0,0,0-1.2.13L348.35,267a2.36,2.36,0,0,1-2.84-.22L329.65,252.5a2.33,2.33,0,0,1-.5-2.84l3.62-6.82a1.35,1.35,0,0,0,.07-1.08l-1.56-4.37a1.35,1.35,0,0,0-.9-.84l-8.86-2.5a2.33,2.33,0,0,1-1.7-2.21L319.5,216l1,0,.32,15.88a1.32,1.32,0,0,0,1,1.26l8.86,2.51a2.32,2.32,0,0,1,1.57,1.46l1.57,4.38a2.33,2.33,0,0,1-.14,1.88L330,250.13a1.33,1.33,0,0,0,.29,1.62L346.18,266a1.33,1.33,0,0,0,1.62.13l5.57-3.63a2.33,2.33,0,0,1,2.1-.22l4.89,1.84a2.32,2.32,0,0,1,1.47,1.74l1.27,6.62a1.36,1.36,0,0,0,1.32,1.09h21.47Z" style="fill: rgb(69, 90, 100); transform-origin: 352.695px 245.275px;" id="elnw02uwdsgmo" class="animable"></path><circle cx="320" cy="218.04" r="2.09" style="fill: rgb(255, 255, 255); transform-origin: 320px 218.04px;" id="elgstxddfbw2o" class="animable"></circle><path d="M320,220.63a2.59,2.59,0,1,1,2.58-2.59A2.59,2.59,0,0,1,320,220.63Zm0-4.18a1.59,1.59,0,1,0,1.58,1.59A1.59,1.59,0,0,0,320,216.45Z" style="fill: rgb(69, 90, 100); transform-origin: 319.99px 218.04px;" id="ellwkpqjhwsks" class="animable"></path><circle cx="385.03" cy="274.83" r="2.09" style="fill: rgb(255, 255, 255); transform-origin: 385.03px 274.83px;" id="eluof37bolky" class="animable"></circle><path d="M385,277.41a2.59,2.59,0,1,1,2.59-2.58A2.59,2.59,0,0,1,385,277.41Zm0-4.17a1.59,1.59,0,1,0,1.59,1.59A1.59,1.59,0,0,0,385,273.24Z" style="fill: rgb(69, 90, 100); transform-origin: 385px 274.82px;" id="elakwaz63zrli" class="animable"></path><path d="M387.29,269.5l-1-.18.63-3.45a3,3,0,0,1,1.85-2.28l5-2a3.06,3.06,0,0,1,2.73.21l6.51,3.89a2,2,0,0,0,2.54-.34l12.14-12.63a2,2,0,0,0,.24-2.56l-4.43-6.69a3,3,0,0,1-.28-2.82l1.51-3.77a3,3,0,0,1,2.18-1.85l7.32-1.6a2.06,2.06,0,0,0,1.62-2V213.63a2.05,2.05,0,0,0-1.55-2l-8-2a3,3,0,0,1-2.07-1.79l-1.6-3.85a3.1,3.1,0,0,1,.2-2.75l3.91-6.52a2,2,0,0,0-.35-2.54l-13.16-12.58a2.05,2.05,0,0,0-2.53-.25l-6.26,4a3,3,0,0,1-2.9.21l-4.13-1.85a3.11,3.11,0,0,1-1.72-2.07l-1.66-6.86a2,2,0,0,0-2-1.57H364.47v-1h17.58a3.06,3.06,0,0,1,3,2.34l1.66,6.85a2.06,2.06,0,0,0,1.15,1.39l4.13,1.86a2,2,0,0,0,1.95-.14l6.26-4a3.05,3.05,0,0,1,3.76.37l13.17,12.57a3.05,3.05,0,0,1,.51,3.79l-3.91,6.52a2.08,2.08,0,0,0-.14,1.85l1.6,3.85a2.06,2.06,0,0,0,1.4,1.2l8,2a3,3,0,0,1,2.3,3v17.74a3.07,3.07,0,0,1-2.4,3l-7.32,1.6a2.06,2.06,0,0,0-1.48,1.24L414.17,241a2,2,0,0,0,.2,1.9l4.42,6.69a3.05,3.05,0,0,1-.35,3.81L406.3,266a3,3,0,0,1-3.77.51L396,262.6a2.06,2.06,0,0,0-1.84-.13l-5,2a2.07,2.07,0,0,0-1.25,1.54Z" style="fill: rgb(69, 90, 100); transform-origin: 395.681px 219.855px;" id="el34co4t69i0p" class="animable"></path><circle cx="365.24" cy="171.19" r="2.09" style="fill: rgb(255, 255, 255); transform-origin: 365.24px 171.19px;" id="el0rpwl5k0km3" class="animable"></circle><path d="M365.24,173.78a2.59,2.59,0,1,1,2.59-2.59A2.59,2.59,0,0,1,365.24,173.78Zm0-4.17a1.59,1.59,0,1,0,1.59,1.58A1.59,1.59,0,0,0,365.24,169.61Z" style="fill: rgb(69, 90, 100); transform-origin: 365.24px 171.19px;" id="elilyzfnkc2e" class="animable"></path><path d="M332.6,210.64a.52.52,0,0,1-.5-.52c0-.16,0-.43,2.17-5.71a2,2,0,0,0-.18-1.88l-4.41-6.79A3,3,0,0,1,330,192l11.74-12.41a3,3,0,0,1,3.84-.48l6.56,4.16a2.06,2.06,0,0,0,1.79.19l5.25-1.9a2,2,0,0,0,1.28-1.39l1.37-5.06a.49.49,0,0,1,.61-.35.5.5,0,0,1,.36.61l-1.38,5.07a3.06,3.06,0,0,1-1.9,2.06l-5.25,1.9a3.07,3.07,0,0,1-2.67-.29l-6.55-4.16a2.05,2.05,0,0,0-2.58.33l-11.74,12.41a2,2,0,0,0-.23,2.52l4.41,6.78a3,3,0,0,1,.27,2.81c-1.49,3.61-2.06,5.14-2.11,5.38A.47.47,0,0,1,332.6,210.64Z" style="fill: rgb(69, 90, 100); transform-origin: 345.994px 192.69px;" id="el4gfh1185bya" class="animable"></path><path d="M374.49,235.94a13.56,13.56,0,0,1,0-27.11,13.31,13.31,0,0,1,5.29,1.08.49.49,0,0,1,.27.65.5.5,0,0,1-.66.27A12.55,12.55,0,1,0,387,222.38a12.57,12.57,0,0,0-2.87-8,.5.5,0,0,1,.07-.7.49.49,0,0,1,.7.06,13.55,13.55,0,0,1-10.45,22.18Z" style="fill: rgb(69, 90, 100); transform-origin: 374.651px 222.385px;" id="eljf21ufpmv9" class="animable"></path><circle cx="380.19" cy="211.01" r="2.09" style="fill: rgb(255, 255, 255); transform-origin: 380.19px 211.01px;" id="eltpoynmzlxi" class="animable"></circle><path d="M380.19,213.6a2.59,2.59,0,1,1,2.58-2.59A2.59,2.59,0,0,1,380.19,213.6Zm0-4.17a1.59,1.59,0,1,0,1.58,1.58A1.59,1.59,0,0,0,380.19,209.43Z" style="fill: rgb(69, 90, 100); transform-origin: 380.18px 211.01px;" id="elq0iewgn9lep" class="animable"></path></g><g id="freepik--character-2--inject-101" class="animable" style="transform-origin: 572.027px 167.489px;"><path d="M700.94,285.14H499.54c-7,0-12.64-6.53-12.64-14.59V105.25c0-8.07,5.66-14.6,12.64-14.6h201.4c7,0,12.63,6.53,12.63,14.6v165.3C713.57,278.61,707.92,285.14,700.94,285.14Z" style="fill: rgb(255, 255, 255); transform-origin: 600.235px 187.895px;" id="elrikz3dy5g6" class="animable"></path><path d="M499.87,90.6H700.6a13.27,13.27,0,0,1,13.27,13.27v20.78a0,0,0,0,1,0,0h-226a0,0,0,0,1,0,0v-22A12,12,0,0,1,499.87,90.6Z" style="fill: rgb(224, 224, 224); transform-origin: 600.87px 107.625px;" id="el3mezid87o1g" class="animable"></path><path d="M505.15,106.57a3.81,3.81,0,1,1-3.81-3.85A3.84,3.84,0,0,1,505.15,106.57Z" style="fill: rgb(255, 255, 255); transform-origin: 501.34px 106.53px;" id="eleq8fzy8g92c" class="animable"></path><path d="M516.63,106.57a3.81,3.81,0,1,1-3.81-3.85A3.83,3.83,0,0,1,516.63,106.57Z" style="fill: rgb(255, 255, 255); transform-origin: 512.82px 106.53px;" id="eluc1h7486tg8" class="animable"></path><path d="M528.12,106.57a3.81,3.81,0,1,1-3.81-3.85A3.84,3.84,0,0,1,528.12,106.57Z" style="fill: rgb(255, 255, 255); transform-origin: 524.31px 106.53px;" id="el798grj06qvm" class="animable"></path><path d="M701.24,285.09l.53,0a9.36,9.36,0,0,0,1.56-.2,11.5,11.5,0,0,0,5.45-2.73,14.8,14.8,0,0,0,4.76-8.68,38.24,38.24,0,0,0,.25-6.45q0-3.47,0-7.38c0-20.87,0-51.06-.08-88.36,0-18.65,0-39.08,0-61,0-1.38,0-2.75,0-4.13a19.49,19.49,0,0,0-.31-4.11,15.05,15.05,0,0,0-3.66-7.32,11.7,11.7,0,0,0-7.23-3.79c-1.38-.12-2.83,0-4.26-.07h-40l-158.73,0a17.17,17.17,0,0,0-2.6.12,7.74,7.74,0,0,0-1.25.27l-.61.19-.59.25a10.57,10.57,0,0,0-4,3.13A13.19,13.19,0,0,0,488,99.37a16.48,16.48,0,0,0-.58,5.15v21q0,20.79,0,40.94c0,26.84,0,52.73,0,77.4v18.26c0,3,0,6,0,8.94a15.23,15.23,0,0,0,.7,4.3,14.21,14.21,0,0,0,1.83,3.9,13.39,13.39,0,0,0,2.85,3.15,11.93,11.93,0,0,0,3.7,2,12.82,12.82,0,0,0,2,.46c.69,0,1.38.09,2.09.07h20.77l60.36,0,87.4.08L693,285l6.18,0,2.11,0-2.11,0-6.18,0-23.76.05-87.4.08-60.36,0H500.66c-.7,0-1.42,0-2.14-.08a11.81,11.81,0,0,1-2.12-.47,12.49,12.49,0,0,1-3.84-2.05,14.27,14.27,0,0,1-2.95-3.25,14.77,14.77,0,0,1-1.88-4A16,16,0,0,1,487,271c-.05-3,0-5.95,0-9V243.81c0-24.67,0-50.56,0-77.4q0-20.13,0-40.94v-21a17,17,0,0,1,.6-5.29A13.69,13.69,0,0,1,490,94.49a11,11,0,0,1,4.23-3.27l.62-.27.64-.19a7.6,7.6,0,0,1,1.32-.29,16.06,16.06,0,0,1,2.67-.12l158.73,0h40c1.44,0,2.85,0,4.31.07A12.2,12.2,0,0,1,710,94.38a15.5,15.5,0,0,1,3.76,7.54,20.41,20.41,0,0,1,.32,4.19v4.13c0,21.93,0,42.36,0,61,0,37.3-.06,67.49-.08,88.36,0,2.61,0,5.07,0,7.38a39.73,39.73,0,0,1-.27,6.48,14.9,14.9,0,0,1-4.85,8.73,11.5,11.5,0,0,1-5.5,2.7,7.9,7.9,0,0,1-1.57.17Z" style="fill: rgb(38, 50, 56); transform-origin: 600.533px 187.734px;" id="elq4umxwxj55" class="animable"></path><path d="M464.57,230.9c-4.11-.45-8.71-.77-8.71-.77l-4.08-.51a4.27,4.27,0,0,0,.25.79,3.07,3.07,0,0,1,.32,1.51c-.13,1-1.19,1.56-2.16,1.74a6,6,0,0,1-5.58-2,5.9,5.9,0,0,1-1-5.59,4.4,4.4,0,0,1-.37-1.65c-.1-3.85,4.47-7.09,4.47-7.09l-1.4-.38s-4.45.61-6.79,7.71a4.6,4.6,0,0,1-2,2.56,2.32,2.32,0,0,1-2,.29c-1.71-.61-1.72-2-.32-6.43s4.23-8.29,7.19-9.32a30.18,30.18,0,0,1,4.19-1.25s-12.45-4.13-13.22-4.43c-2.25-.84-3.75-2.56-3.32-4.1.27-1,1.36-2.05,4-1.14,2.29.78,26.8,5.84,26.8,5.84l10.71,2.87,8.45,3.81-5.93,14.8-1,.65A12.82,12.82,0,0,1,464.57,230.9Z" style="fill: rgb(174, 116, 97); transform-origin: 454.983px 217.121px;" id="elkm6khl8ivqd" class="animable"></path><path d="M470,211.28c-.1,1.42-1.52,2.42-2.91,2.73s-2.86.13-4.27.34c-4.23.61-7.49,4.47-11.75,4.89-.59.06-1.34-.06-1.52-.62s.29-1,.7-1.39l10.54-9.43" style="fill: rgb(174, 116, 97); transform-origin: 459.755px 213.527px;" id="elms47hviswwb" class="animable"></path><path d="M460.78,207.8a6,6,0,0,0-1.25.91c-.76.62-1.85,1.54-3.19,2.68l-4.67,4.06c-.43.39-.88.78-1.34,1.18s-1.09.77-1.21,1.73a1.16,1.16,0,0,0,.73,1.11,2.43,2.43,0,0,0,1.14.17,9.57,9.57,0,0,0,2.05-.42c2.66-.9,4.71-2.52,6.77-3.5a10.74,10.74,0,0,1,3-1c1-.16,1.95-.14,2.84-.21a5,5,0,0,0,3.86-1.71,1.83,1.83,0,0,0,.46-1.48,4.22,4.22,0,0,1-.7,1.29,4.86,4.86,0,0,1-3.65,1.33,28.07,28.07,0,0,0-2.91.13,11,11,0,0,0-3.24,1c-2.16,1-4.23,2.59-6.7,3.41a8.9,8.9,0,0,1-1.84.39c-.59.05-1.1-.16-1-.47s.48-.78.94-1.18l1.32-1.2,4.55-4.19c1.29-1.2,2.32-2.18,3-2.87S460.82,207.84,460.78,207.8Z" style="fill: rgb(111, 68, 57); transform-origin: 459.553px 213.725px;" id="ellnk2fn4vbe" class="animable"></path><path d="M447.82,217.17a6.07,6.07,0,0,0-2.68,0,4.48,4.48,0,0,0-2.31,1.61,11.42,11.42,0,0,0-1.65,3.17,18.51,18.51,0,0,1-1.53,3.39,6,6,0,0,1-2.21,2.15,2.34,2.34,0,0,1-2.08.07c-.44-.23-.61-.45-.6-.47s.25.13.68.28a2.14,2.14,0,0,0,1.83-.21,5.8,5.8,0,0,0,2-2.07,19.71,19.71,0,0,0,1.45-3.32,11.26,11.26,0,0,1,1.77-3.29,4.79,4.79,0,0,1,2.59-1.67,4.37,4.37,0,0,1,2.08,0A1.62,1.62,0,0,1,447.82,217.17Z" style="fill: rgb(111, 68, 57); transform-origin: 441.29px 222.227px;" id="elbfmw6k58zwn" class="animable"></path><path d="M432.49,205.73a16.62,16.62,0,0,1,2.48.81l5.91,2.09,5.95,2a14.74,14.74,0,0,1,2.45.89,11.89,11.89,0,0,1-2.56-.54c-1.56-.42-3.69-1.06-6-1.86s-4.4-1.61-5.88-2.24A11,11,0,0,1,432.49,205.73Z" style="fill: rgb(111, 68, 57); transform-origin: 440.885px 208.625px;" id="elrx53nl93kvh" class="animable"></path><path d="M449.64,220.91a3.8,3.8,0,0,1-.53.62,2.43,2.43,0,0,0-.76,1.87,1.27,1.27,0,0,0,.81,1,6.41,6.41,0,0,0,1.64.43,2.92,2.92,0,0,1,1.84,1A2.41,2.41,0,0,1,453,228a2.83,2.83,0,0,1-1.51,1.65,3.52,3.52,0,0,1-2.05.32,11,11,0,0,1-3.15-1.13,6.59,6.59,0,0,1-1.83-1.32,1.65,1.65,0,0,1-.43-.71c.05,0,.2.23.58.57a8.26,8.26,0,0,0,1.84,1.14,12.65,12.65,0,0,0,3.06,1,2.82,2.82,0,0,0,3-1.65,2,2,0,0,0-.24-1.76,2.5,2.5,0,0,0-1.53-.79,6.86,6.86,0,0,1-1.74-.52,1.64,1.64,0,0,1-1-1.32,2.53,2.53,0,0,1,1-2.06A2.32,2.32,0,0,1,449.64,220.91Z" style="fill: rgb(111, 68, 57); transform-origin: 448.572px 225.458px;" id="ely8umvrnnx4" class="animable"></path><path d="M451.14,229.31s.29,0,.68.31a2.22,2.22,0,0,1,.77,1.86,3,3,0,0,1-1.78,2.42,5,5,0,0,1-3.69.09,5.86,5.86,0,0,1-2.94-2.18,5.64,5.64,0,0,1-1-2.81,5.26,5.26,0,0,1,.21-2c.14-.45.28-.68.31-.67a9.16,9.16,0,0,0-.15,2.62,5.57,5.57,0,0,0,1,2.57,5.66,5.66,0,0,0,2.72,2,4.69,4.69,0,0,0,3.31,0,2.66,2.66,0,0,0,1.62-2,2.11,2.11,0,0,0-.54-1.69C451.38,229.44,451.12,229.35,451.14,229.31Z" style="fill: rgb(111, 68, 57); transform-origin: 447.878px 230.315px;" id="ellqqrq40uzji" class="animable"></path><path d="M462.41,223.63a2.16,2.16,0,0,1,.43-1.17,5,5,0,0,1,2.46-2l0,.46c-.5-.24-1-.52-1.56-.84a11,11,0,0,1-4.28-4.31A27.33,27.33,0,0,0,464,219.6c.51.31,1,.59,1.5.83l.53.26-.56.19a5.24,5.24,0,0,0-2.37,1.75C462.65,223.23,462.48,223.66,462.41,223.63Z" style="fill: rgb(111, 68, 57); transform-origin: 462.745px 219.701px;" id="elu2ta4k6hxqd" class="animable"></path><path d="M441.21,216.67c.1-.1.83.68.91,1.92s-.5,2.13-.61,2,.18-.92.09-2S441.09,216.75,441.21,216.67Z" style="fill: rgb(111, 68, 57); transform-origin: 441.658px 218.632px;" id="el2xmlvcublqj" class="animable"></path><path d="M572.72,193s-26.53,45.29-35.36,49.7-40.77-2-48.19-3.72C480.74,237,470,233.66,470,233.66l3.14-25.15,6.95.15s39.38,4,41.66,2.19S539.18,180,539.18,180s9.52-19.22,12.93-23.62c5-6.46,9.19-6.46,9.19-6.46Z" style="fill: #7E4BDC; transform-origin: 521.36px 197.071px;" id="elvl4al37xghr" class="animable"></path><path d="M540.85,284.8c.7-35.94,3.93-109,3.93-109L561.3,150a74,74,0,0,1,11.42-2.2c6.32-.7,7.39-1.3,7.39-1.3l4.6-7.25L622.62,137l5.79,10.74s23.73,12.37,26.89,14.11-17.44,87-17.44,87l4,36Z" style="fill: #7E4BDC; transform-origin: 598.24px 210.925px;" id="elpc54jz02qw" class="animable"></path><path d="M573.83,284.8c.14-6.3.47-13.81.91-22.13s1.16-17.47,2.1-27.05S579,217,580.28,208.7s2.72-15.62,4.19-21.77c.35-1.53.68-3,1-4.39s.71-2.67,1-3.88c.63-2.43,1.18-4.52,1.73-6.2l1.16-3.91c.12-.41.21-.75.29-1a1.36,1.36,0,0,0,.07-.35,1.27,1.27,0,0,0-.14.33c-.1.26-.21.59-.36,1-.31.94-.75,2.23-1.3,3.87s-1.17,3.76-1.84,6.18c-.34,1.21-.71,2.51-1.09,3.88s-.69,2.85-1.06,4.38c-1.53,6.15-2.94,13.54-4.35,21.78s-2.51,17.36-3.5,27-1.58,18.75-2,27.08-.68,15.85-.76,22.16" style="fill: rgb(38, 50, 56); transform-origin: 581.52px 226.03px;" id="ele1oytvgnevm" class="animable"></path><path d="M544.78,175.82a16.14,16.14,0,0,0-.23,2.46c-.11,1.58-.22,3.87-.33,6.7-.23,5.67-.42,13.49-.65,22.13s-.52,16.46-.79,22.12c-.14,2.74-.26,5-.34,6.7a15.85,15.85,0,0,0-.05,2.46,14.89,14.89,0,0,0,.33-2.44c.17-1.58.37-3.86.57-6.69.41-5.65.79-13.48,1-22.13s.34-16.47.44-22.13c0-2.74.07-5,.09-6.71A17.07,17.07,0,0,0,544.78,175.82Z" style="fill: rgb(38, 50, 56); transform-origin: 543.605px 207.105px;" id="elz7xzmiww8w" class="animable"></path><g id="elbhm6r1ekw9f"><g style="opacity: 0.3; transform-origin: 593.05px 249.985px;" class="animable" id="elrgmbl9x2ux"><path d="M546.1,237.44a6.84,6.84,0,0,1,4.16-5,18.26,18.26,0,0,1,6.69-1.24,118.07,118.07,0,0,1,81.93,28.19l1.16,8c-7.21,3.05-15.57,1-22.72-2.23s-13.94-7.47-21.64-9c-6.67-1.29-13.85-.42-20-3.27-3.88-1.8-7.07-5-11.15-6.28-3.63-1.17-7.61-.74-11.33-1.6S545.63,241.21,546.1,237.44Z" id="elds1ln1tl5th" class="animable" style="transform-origin: 593.05px 249.985px;"></path></g></g><path d="M655.3,161.85A30,30,0,0,1,670.35,182c2,8.87,7.79,33.26,7.79,33.26s6.29,29.1,5.39,34.74-2.79,18.24-15.07,19.72-55-14.08-55-14.08l-11.67-4.75,4.49-21.38,20.06,5L646,236.16l-2.65-17.77L639,207s.24-12.46,5-22.85S655.3,161.85,655.3,161.85Z" style="fill: #7E4BDC; transform-origin: 642.704px 215.835px;" id="eliorqy6bqttf" class="animable"></path><path d="M582.07,219.37,566.57,188a6.27,6.27,0,0,0-5.63-3.48H522a1.9,1.9,0,0,0-1.68,2.8l26.36,48.81a4.25,4.25,0,0,0,3.74,2.22h40.4Z" style="fill: rgb(69, 90, 100); transform-origin: 555.457px 211.435px;" id="elgku5izxxtn5" class="animable"></path><path d="M520.56,187.58a2.83,2.83,0,0,0,.78.07l2.23,0h8.21l27-.23a7.69,7.69,0,0,1,3.6.86,6.79,6.79,0,0,1,2.39,2.62c1.13,2.14,2.08,4.38,3.07,6.41L573,208.28c1.47,3,2.67,5.51,3.55,7.33l1,2a2.82,2.82,0,0,0,.4.67,3.52,3.52,0,0,0-.26-.73c-.23-.54-.52-1.21-.88-2-.82-1.85-2-4.37-3.33-7.44l-5-11c-1-2.06-1.89-4.23-3.06-6.48a7.4,7.4,0,0,0-2.65-2.89,8.46,8.46,0,0,0-3.93-1c-10.61.07-20.15.3-27.08.44l-8.2.23-2.23.1A3.73,3.73,0,0,0,520.56,187.58Z" style="fill: rgb(38, 50, 56); transform-origin: 549.255px 202.51px;" id="el08sbmqyx57ea" class="animable"></path><path d="M544.57,194.45a1.27,1.27,0,0,0-.59,1.94,1.87,1.87,0,0,0,2.06.77,1.45,1.45,0,0,0,1.08-1,1.79,1.79,0,0,0-1.19-1.78A2.85,2.85,0,0,0,544.57,194.45Z" style="fill: rgb(255, 255, 255); transform-origin: 545.43px 195.779px;" id="elj8vbzha50w" class="animable"></path><path d="M605.88,231.44l-2.69-2.74s-3.94-5.69-5.55-7.46-11.3-8-11.3-8S581.68,207,581,207s-3,.4-2.38,3.31a44.88,44.88,0,0,0,2.56,8.41l-20.67.45a4.41,4.41,0,0,0-3.37,1.6c-.54.68-.77,1.44.2,1.92,2.15,1.06,10.93,3.2,10.93,3.2l-3.92-1s-.84,3.72,1.64,5.48a13,13,0,0,1,2.64,2.1s.12,3.52,1.2,4.94,12.72,7.36,12.72,7.36,7.45,2.19,11.21,2,7.64,1.94,8.07,2.05S605.88,231.44,605.88,231.44Z" style="fill: rgb(174, 116, 97); transform-origin: 581.277px 227.91px;" id="ele7lcztumfs9" class="animable"></path><path d="M579.15,218.78c0,.21,2.61.31,5.81.65s5.84.51,5.86.28-2.56-.65-5.79-1S579.14,218.59,579.15,218.78Z" style="fill: rgb(111, 68, 57); transform-origin: 584.985px 219.172px;" id="elmu9g6q02w0p" class="animable"></path><path d="M581.91,227.88c.07-.22-3.7-1.24-8.44-1.78-2.37-.29-4.51-.51-6.05-.68a11.76,11.76,0,0,0-2.53-.19,7,7,0,0,0,2.45.7c1.54.3,3.68.6,6,.89C578.1,227.36,581.86,228.05,581.91,227.88Z" style="fill: rgb(111, 68, 57); transform-origin: 573.4px 226.565px;" id="eljs0nmwvhma" class="animable"></path><path d="M581.91,234.59c0-.21-3-.3-6.65-.93s-6.52-1.52-6.59-1.32,2.74,1.41,6.47,2S581.92,234.78,581.91,234.59Z" style="fill: rgb(111, 68, 57); transform-origin: 575.289px 233.535px;" id="el69g7y69dr4" class="animable"></path><path d="M580.66,242.11c.2,0,.5-.77.67-1.8s.15-1.88-.05-1.92-.5.78-.67,1.8S580.46,242.08,580.66,242.11Z" style="fill: rgb(111, 68, 57); transform-origin: 580.97px 240.249px;" id="elqdrwj973o19" class="animable"></path><path d="M582.52,233.11c.2,0,.31-.68.67-1.39s.8-1.21.68-1.38-.9.16-1.34,1.07S582.32,233.14,582.52,233.11Z" style="fill: rgb(111, 68, 57); transform-origin: 583.084px 231.704px;" id="eleu47j6gtmoc" class="animable"></path><path d="M584.88,224.1c.2,0,.41-.41.66-.9s.46-.91.32-1.06-.66.12-1,.74S584.68,224.08,584.88,224.1Z" style="fill: rgb(111, 68, 57); transform-origin: 585.283px 223.1px;" id="elpxtb9kneibk" class="animable"></path><path d="M589.75,167.18a8.5,8.5,0,0,0,1.18-.68l3.26-1.94c1.4-.83,3.1-1.82,5-3a47.61,47.61,0,0,0,6.14-4.28l-.54-.09a19.94,19.94,0,0,1,2.2,9.91v0l0,.82.62-.53c6.08-5.14,11.53-9.87,15.32-13.46,1.9-1.79,3.4-3.27,4.41-4.33a13.38,13.38,0,0,0,1.5-1.7,14.52,14.52,0,0,0-1.7,1.5l-4.56,4.16c-3.87,3.48-9.36,8.14-15.44,13.28l.6.29v0a20.3,20.3,0,0,0-2.32-10.25l-.21-.38-.33.29a48.73,48.73,0,0,1-6,4.28L594,164.21c-1.37.87-2.45,1.59-3.16,2.11A5.13,5.13,0,0,0,589.75,167.18Z" style="fill: rgb(38, 50, 56); transform-origin: 609.295px 157.91px;" id="elsioxd79tt6d" class="animable"></path><path d="M580.11,146.46a6.87,6.87,0,0,0-.79,1.5c-.45,1-1.06,2.45-1.76,4.27s-1.5,4-2.24,6.47c-.19.62-.37,1.27-.51,1.94a3.77,3.77,0,0,0-.09,1.16.51.51,0,0,0,.6.39.48.48,0,0,0,.31-.18l.08-.1.33-.41,2.67-3.44,3.45-4.47-.59-.05c2.16,4.05,4.12,7.51,5.61,9.92.74,1.21,1.36,2.15,1.81,2.79a4.32,4.32,0,0,0,.76.93,4.56,4.56,0,0,0-.56-1.06c-.44-.79-1-1.75-1.63-2.88-1.37-2.46-3.25-6-5.37-10l-.25-.49-.34.44c-1.09,1.4-2.26,2.89-3.46,4.44L575.49,161l-.31.42-.08.1.13.13h0a0,0,0,0,1,0,0h0l.19-.05a3.66,3.66,0,0,1,.09-.87c.13-.64.29-1.27.46-1.88.7-2.46,1.46-4.65,2.08-6.49l1.54-4.33A8.59,8.59,0,0,0,580.11,146.46Z" style="fill: rgb(38, 50, 56); transform-origin: 582.229px 156.82px;" id="el8g9w88bq2dm" class="animable"></path><path d="M670.89,234.16a13.29,13.29,0,0,0-3.6-.95,37,37,0,0,0-9-.4,36.55,36.55,0,0,0-8.8,1.82,13,13,0,0,0-3.4,1.51,32.49,32.49,0,0,0,3.55-1,45.54,45.54,0,0,1,8.71-1.58,46,46,0,0,1,8.86.18A29.57,29.57,0,0,0,670.89,234.16Z" style="fill: rgb(38, 50, 56); transform-origin: 658.49px 234.419px;" id="el5dwcsg7tqxc" class="animable"></path><path d="M658.49,228.85c0-.17-3.41.29-7.06,2.29s-5.87,4.58-5.73,4.69,2.53-2.14,6.08-4.05S658.55,229.07,658.49,228.85Z" style="fill: rgb(38, 50, 56); transform-origin: 652.092px 232.326px;" id="elpcz1gdok9ik" class="animable"></path><path d="M641.73,207.87a1.59,1.59,0,0,0,0,.5c0,.38.1.86.18,1.46.18,1.33.44,3.2.77,5.56l2.95,20.23v0c0,.17,0,.37,0,.58l.32-.31-21-2h0l-18.64-4.71-.37-.09-.08.37c-.36,1.69-.74,3.5-1.12,5.32-1.16,5.54-2.29,10.93-3.36,16.06l-.06.29.27.11A330.73,330.73,0,0,0,641,264.7c5,1.35,9,2.31,11.83,2.93l3.19.69.83.16a.92.92,0,0,0,.29,0l-.27-.1-.82-.22-3.17-.8c-2.76-.71-6.77-1.73-11.76-3.14a355.5,355.5,0,0,1-39.18-13.65l.22.39c1.08-5.12,2.21-10.51,3.38-16.05.38-1.82.76-3.63,1.11-5.32l-.44.27,18.65,4.68h.06L646,236.44l.34,0,0-.33c0-.2,0-.41,0-.58v0h0c-1.33-8.42-2.42-15.33-3.19-20.18-.4-2.36-.7-4.22-.92-5.54l-.27-1.45A3,3,0,0,0,641.73,207.87Z" style="fill: rgb(38, 50, 56); transform-origin: 629.23px 238.181px;" id="el4345cr6pzex" class="animable"></path><path d="M640.32,186.88a33.39,33.39,0,0,0,.91-3.57,41.51,41.51,0,0,1,7.88-15.67,30.38,30.38,0,0,0,2.32-2.87,13.5,13.5,0,0,0-2.72,2.54,34.28,34.28,0,0,0-8,15.88A13,13,0,0,0,640.32,186.88Z" style="fill: rgb(38, 50, 56); transform-origin: 645.87px 175.825px;" id="elrckd91w3m3g" class="animable"></path><g id="el3dhojkpg1y9"><g style="opacity: 0.3; transform-origin: 641.045px 209.55px;" class="animable" id="elsq6n6nw1sgn"><path d="M639.61,194.12c1.69,9.14,2.9,19.45,4.36,28.63-.34.43-.15,1.8-.5,2.23-1.7-4.7-3.94-10.37-4.9-15.26S638.29,198.94,639.61,194.12Z" id="el5mdeehuzzma" class="animable" style="transform-origin: 641.045px 209.55px;"></path></g></g><g id="elnuin1fkn9ik"><g style="opacity: 0.3; transform-origin: 608.05px 163.485px;" class="animable" id="elt4ij6zdgz5"><path d="M603.44,164.83l-12.63,1.73a90.86,90.86,0,0,0,14.28-9.5c1.58,3.68,2.46,5,2.2,10.34,6.12-5.09,11.91-10.91,18-16a106.5,106.5,0,0,1-22.88,24.17A39.63,39.63,0,0,0,603.44,164.83Z" id="elkbam6epo9f" class="animable" style="transform-origin: 608.05px 163.485px;"></path></g></g><path d="M609.54,55.53a6.81,6.81,0,0,0-6.91-3.66,9.32,9.32,0,0,0-11.4-.17,8.45,8.45,0,0,0-8.11-.44,8.31,8.31,0,0,0-4.53,6.68,7.08,7.08,0,0,0-7.31,3.34,7,7,0,0,0,.9,7.94,6.55,6.55,0,0,0,2.33,12.84L608,63.15A6.66,6.66,0,0,0,609.54,55.53Z" style="fill: rgb(38, 50, 56); transform-origin: 588.744px 65.9625px;" id="el8m4yxvut6yc" class="animable"></path><path d="M570.24,118.36c.16-7.21,1.72-22,3.28-35.42a28,28,0,0,1,28.84-24.6l1.45,0C619.44,59.84,626.92,73.8,625,89.25l-4.4,48.7L590.41,165.2l-6.59-19.26,1-9.81S569.9,133.29,570.24,118.36Z" style="fill: rgb(174, 116, 97); transform-origin: 597.765px 111.76px;" id="elda6srsw1zy" class="animable"></path><path d="M584.74,136.1a36.74,36.74,0,0,0,19.92-5s-5,10.58-20,8.72Z" style="fill: rgb(111, 68, 57); transform-origin: 594.66px 135.57px;" id="elfhm6hrmao5" class="animable"></path><path d="M577.91,97a2.13,2.13,0,0,0,2,2.22,2.05,2.05,0,0,0,2.29-1.84,2.14,2.14,0,0,0-2-2.22A2,2,0,0,0,577.91,97Z" style="fill: rgb(38, 50, 56); transform-origin: 580.055px 97.1867px;" id="el1f67g1n3phj" class="animable"></path><path d="M576.5,90.35c.25.29,1.92-.85,4.24-.76s4,1.29,4.22,1-.12-.63-.84-1.19a5.88,5.88,0,0,0-3.38-1.16,5.71,5.71,0,0,0-3.38.95C576.63,89.73,576.37,90.22,576.5,90.35Z" style="fill: rgb(38, 50, 56); transform-origin: 580.747px 89.4354px;" id="el77bbwys3uqd" class="animable"></path><path d="M598.29,98a2.14,2.14,0,0,0,2,2.22,2,2,0,0,0,2.28-1.84,2.13,2.13,0,0,0-2-2.22A2.05,2.05,0,0,0,598.29,98Z" style="fill: rgb(38, 50, 56); transform-origin: 600.43px 98.1932px;" id="el9dxh9b71dbk" class="animable"></path><path d="M599.21,91.57c.26.28,1.93-.86,4.24-.77s4,1.29,4.22,1c.13-.12-.12-.63-.84-1.19a5.88,5.88,0,0,0-3.37-1.16,5.7,5.7,0,0,0-3.39,1C599.34,90.94,599.08,91.44,599.21,91.57Z" style="fill: rgb(38, 50, 56); transform-origin: 603.44px 90.6464px;" id="el5r5vaa87ylc" class="animable"></path><path d="M590.22,108.28a15,15,0,0,0-3.73-.8c-.59-.08-1.14-.22-1.23-.62a3,3,0,0,1,.46-1.72q.9-2.1,1.9-4.4c2.65-6.27,4.58-11.42,4.33-11.53s-2.61,4.89-5.26,11.16c-.63,1.54-1.25,3-1.83,4.42a3.42,3.42,0,0,0-.38,2.29,1.46,1.46,0,0,0,.94.89,3.54,3.54,0,0,0,1,.17A15.09,15.09,0,0,0,590.22,108.28Z" style="fill: rgb(38, 50, 56); transform-origin: 588.198px 98.7743px;" id="el326xyzq5mwg" class="animable"></path><path d="M597,110.1c-.38,0-.47,2.45-2.68,4.15s-4.87,1.32-4.9,1.67c0,.16.58.5,1.71.57a6.27,6.27,0,0,0,4.08-1.25,5.41,5.41,0,0,0,2.09-3.48C597.4,110.72,597.14,110.09,597,110.1Z" style="fill: rgb(38, 50, 56); transform-origin: 593.371px 113.299px;" id="elw0ow3g1ur7" class="animable"></path><path d="M598.93,82.56c.2.63,2.52.42,5.22.83s4.87,1.23,5.25.68c.17-.26-.19-.86-1-1.49a8.85,8.85,0,0,0-3.86-1.49,9,9,0,0,0-4.12.33C599.36,81.79,598.84,82.26,598.93,82.56Z" style="fill: rgb(38, 50, 56); transform-origin: 604.181px 82.6202px;" id="elcjfd77shpqf" class="animable"></path><path d="M577.58,83.75c.39.53,2,0,3.92.09s3.52.47,3.91-.06c.18-.26-.06-.79-.75-1.31a5.71,5.71,0,0,0-6.31,0C577.65,83,577.41,83.49,577.58,83.75Z" style="fill: rgb(38, 50, 56); transform-origin: 581.498px 82.7876px;" id="el3eab2r6onkh" class="animable"></path><path d="M575.21,76.15s4.29-9.21,8.91-11.23c5.6-2.45,7.75,3.62,13,2.35s10.63-3.63,15.84.58c5.71,4.6,2.86,7.59,3,14.22.52,26.89,5.2,34.65,7,22.06.2-1.38,4.12-2.35,4.9-8.18,1-7.56,1.63-16.77.11-22.21-1.28-4.59-3.78-7.82-8.34-11.44-7.2-5.71-17.34-6.18-24.25-5.73S575,64.43,575.21,76.15Z" style="fill: rgb(38, 50, 56); transform-origin: 602.044px 83.2249px;" id="elpksk52uv4xl" class="animable"></path><path d="M622.1,103.69a4.08,4.08,0,0,1,4.55-3.75c2.8.36,5.86,2,5.48,7.79-.69,10.19-10.86,7.4-10.86,7.11S621.78,108,622.1,103.69Z" style="fill: rgb(174, 116, 97); transform-origin: 626.716px 107.658px;" id="elflc92v4dl3i" class="animable"></path><path d="M623.76,111.16s.17.13.47.29a1.82,1.82,0,0,0,1.33.12c1.12-.33,2.14-2,2.32-3.81a5.82,5.82,0,0,0-.33-2.57,2.1,2.1,0,0,0-1.26-1.46.92.92,0,0,0-1.09.42c-.15.28-.1.48-.16.5s-.21-.19-.09-.6a1.11,1.11,0,0,1,.44-.61,1.36,1.36,0,0,1,1-.2,2.51,2.51,0,0,1,1.76,1.71,5.9,5.9,0,0,1,.43,2.88c-.2,2-1.39,3.9-2.9,4.22a1.93,1.93,0,0,1-1.62-.37C623.77,111.4,623.73,111.17,623.76,111.16Z" style="fill: rgb(111, 68, 57); transform-origin: 626.181px 107.657px;" id="el0p6mdxmudwdh" class="animable"></path><path d="M622.6,83.92a9.76,9.76,0,0,1-4.43,1.84c-1.61.1-3.42-.88-3.64-2.47-.1-.71.11-1.53-.34-2.09s-1.59-.51-2.45-.45a6.56,6.56,0,0,1-6.65-4.9c-.8,1.11-2.58,1-3.71.22a14.73,14.73,0,0,1-2.7-3.07,4.21,4.21,0,0,0-3.47-1.87,10.46,10.46,0,0,1-2.25.41c-1.35-.17-2-1.76-2.11-3.1s-.26-2.89-1.38-3.65-2.42-.37-3.67-.23-2.85-.21-3.13-1.42a2.46,2.46,0,0,1,.53-1.84,6.71,6.71,0,0,1,7.95-2.23,9.07,9.07,0,0,1,16.65-1.16,9.42,9.42,0,0,1,8.27-1.85,9.28,9.28,0,0,1,6.26,5.67,6.83,6.83,0,0,1,6.86,2.57,6.72,6.72,0,0,1,.3,7.27c1.81,1.11,3.33,3,3.29,5.1s-2.18,4.15-4.22,3.52a3.76,3.76,0,0,1-1.62,4.74,3.84,3.84,0,0,1-4.87-1.32" style="fill: rgb(38, 50, 56); transform-origin: 607.717px 69.3656px;" id="el9lagygyj10w" class="animable"></path><path d="M629.32,80.19a2.45,2.45,0,0,1-.71,1.94,3.32,3.32,0,0,1-2.11,1.15,3.57,3.57,0,0,1-2.9-1l.44,0a10.44,10.44,0,0,1-2.14,2.48A6.11,6.11,0,0,1,620,85.85a4.12,4.12,0,0,1-2.08.12,4.08,4.08,0,0,1-2.9-1.79,5.89,5.89,0,0,1-.76-2.16c-.09-.52-.09-.82,0-.82s.12.27.27.77a6.81,6.81,0,0,0,.88,2,4.22,4.22,0,0,0,6.18.36,10.17,10.17,0,0,0,2-2.31l.19-.3.25.25a3.19,3.19,0,0,0,2.45.87,3.08,3.08,0,0,0,1.9-.91A4.91,4.91,0,0,0,629.32,80.19Z" style="fill: rgb(69, 90, 100); transform-origin: 621.761px 83.1202px;" id="elpjqie9wwqd" class="animable"></path><path d="M600.46,111.71c-.17,0-.2-1.08-1-2s-1.89-1.11-1.87-1.28.29-.15.76-.05a3,3,0,0,1,1.55.94,2.9,2.9,0,0,1,.74,1.65C600.64,111.44,600.53,111.72,600.46,111.71Z" style="fill: rgb(111, 68, 57); transform-origin: 599.115px 110.007px;" id="el215oxqoec62" class="animable"></path><path d="M601.47,108.92c-.15.08-.51-.28-1.05-.55s-1-.34-1.06-.51.62-.37,1.33,0S601.61,108.86,601.47,108.92Z" style="fill: rgb(111, 68, 57); transform-origin: 600.434px 108.291px;" id="el4slflvlagt" class="animable"></path><path d="M582.64,51.53c0-.1-1.11.56-1.94,2.25a8.43,8.43,0,0,0-.92,3.15,5.66,5.66,0,0,0,1.06,3.91,8.33,8.33,0,0,0,3.21,2.47,21.91,21.91,0,0,0,3,1.14,13.54,13.54,0,0,0,2.88.74,10.79,10.79,0,0,0-2.7-1.22,29.5,29.5,0,0,1-2.91-1.26,8.19,8.19,0,0,1-2.92-2.29,5.26,5.26,0,0,1-1-3.45,8.93,8.93,0,0,1,.72-3A11.82,11.82,0,0,1,582.64,51.53Z" style="fill: rgb(224, 224, 224); transform-origin: 584.841px 58.3551px;" id="el5lok7p4ea87" class="animable"></path><path d="M576.11,58.23c-.08,0-.15.65.13,1.64a7.51,7.51,0,0,0,2.13,3.38,7.61,7.61,0,0,0,3.56,1.84c1,.19,1.66.08,1.66,0s-.61-.19-1.53-.5a8.92,8.92,0,0,1-5.34-4.89C576.35,58.82,576.23,58.22,576.11,58.23Z" style="fill: rgb(224, 224, 224); transform-origin: 579.814px 61.7125px;" id="el4n2z23atxjm" class="animable"></path></g><g id="freepik--speech-bubble-3--inject-101" class="animable" style="transform-origin: 683.644px 94.5791px;"><path d="M711.69,45.21a5.8,5.8,0,0,1,5.8,5.78l.18,52.74L717.51,125a5.79,5.79,0,0,1-5.79,5.75H671l-12.78,12.75V130.76h-2.73a5.8,5.8,0,0,1-5.8-5.85L650.39,51a5.8,5.8,0,0,1,5.79-5.75Z" style="fill: rgb(255, 255, 255); transform-origin: 683.68px 94.355px;" id="elr2xhmz22s0h" class="animable"></path><path d="M711.69,45.21l-.77,0-2.25,0-8.7,0-32.08.08-10.66,0a8.54,8.54,0,0,0-2.72.26,5.64,5.64,0,0,0-2.32,1.44,5.52,5.52,0,0,0-1.39,2.41,11.06,11.06,0,0,0-.21,2.9c-.07,8-.14,16.55-.22,25.56s-.17,18.49-.26,28.32q-.06,7.38-.14,15c0,1.27,0,2.56,0,3.82a5.51,5.51,0,0,0,1.28,3.38,5.65,5.65,0,0,0,3.13,1.88,9.76,9.76,0,0,0,1.89.11h2.22v13l-.44-.18c4.36-4.36,8.65-8.63,12.78-12.75l.08-.08h40.35a5.65,5.65,0,0,0,5.13-2.52,5.45,5.45,0,0,0,.9-2.76c0-1,0-2,0-3,0-8,.18-15.55.15-22.6s0-13.59,0-19.54c0-11.89,0-21.43,0-28a11.27,11.27,0,0,0-.13-2.3,5.5,5.5,0,0,0-.76-1.85,5.79,5.79,0,0,0-2.31-2.09,6.67,6.67,0,0,0-2.51-.63s.23,0,.67,0a5.84,5.84,0,0,1,5.07,4.51,11.1,11.1,0,0,1,.15,2.34c0,6.58.11,16.12.18,28,0,6,.06,12.49.1,19.54s-.07,14.61-.1,22.61c0,1,0,2,0,3a5.83,5.83,0,0,1-1,3,6.15,6.15,0,0,1-5.52,2.75H671l.18-.07L658.4,143.7l-.45.44V130.76l.26.26h-2a9.65,9.65,0,0,1-2-.13,6,6,0,0,1-4.83-5.74c0-1.3,0-2.56,0-3.84q.07-7.64.15-15c.1-9.84.19-19.31.28-28.32s.19-17.57.27-25.56a11.85,11.85,0,0,1,.24-3,6,6,0,0,1,4-4.12,8.65,8.65,0,0,1,2.84-.27h10.66l32.08.09,8.7,0,2.25,0Z" style="fill: rgb(38, 50, 56); transform-origin: 683.644px 94.5791px;" id="elsxcasjy519r" class="animable"></path><g id="elnpef63gnn8d"><rect x="698.5" y="92.67" width="8.73" height="28.28" style="fill: rgb(69, 90, 100); transform-origin: 702.865px 106.81px; transform: rotate(180deg);" class="animable" id="elvcuouk8mx8a"></rect></g><g id="elwlbue2701u"><rect x="660.24" y="106.02" width="8.73" height="14.94" style="fill: rgb(69, 90, 100); transform-origin: 664.605px 113.49px; transform: rotate(180deg);" class="animable" id="el2mh6paxbq07"></rect></g><g id="elyoxa4t5xz8t"><rect x="684.94" y="87.35" width="8.73" height="33.6" style="fill: rgb(69, 90, 100); transform-origin: 689.305px 104.15px; transform: rotate(180deg);" class="animable" id="eloxk6ora7o5"></rect></g><g id="elp0jggyho8ch"><rect x="671.85" y="73.27" width="8.73" height="47.68" style="fill: rgb(69, 90, 100); transform-origin: 676.215px 97.11px; transform: rotate(180deg);" class="animable" id="elx50v4t3r0m"></rect></g><path d="M713.2,121s0-.11,0-.32,0-.54,0-.95c0-.84,0-2.06,0-3.64,0-3.19,0-7.84-.06-13.73,0-11.79-.07-28.56-.12-48.56l.23.23L655,54h0l.26-.26c0,24.79,0,47.89,0,67.2l-.22-.22,42.2.12,11.82.05,3.12,0,1.09,0-1,0-3.08,0-11.77.06-42.34.11h-.22V121c0-19.31,0-42.41,0-67.2v-.26H655l58.23,0h.23v.23c0,20.06-.09,36.89-.12,48.71,0,5.87,0,10.5-.06,13.68,0,1.56,0,2.76,0,3.6,0,.39,0,.69,0,.91A2.86,2.86,0,0,1,713.2,121Z" style="fill: rgb(38, 50, 56); transform-origin: 684.16px 87.3px;" id="elrytoel17wd" class="animable"></path><path d="M713.2,100.26c0,.15-13,.26-29.12.26s-29.11-.11-29.11-.26,13-.26,29.11-.26S713.2,100.12,713.2,100.26Z" style="fill: rgb(38, 50, 56); transform-origin: 684.085px 100.26px;" id="elnsasunq8cje" class="animable"></path><path d="M713.2,69.82c0,.14-13,.26-29.12.26S655,70,655,69.82s13-.26,29.11-.26S713.2,69.68,713.2,69.82Z" style="fill: rgb(38, 50, 56); transform-origin: 684.1px 69.82px;" id="elwexrgbn7gi" class="animable"></path></g><g id="freepik--speech-bubble-1--inject-101" class="animable" style="transform-origin: 73.5057px 333.168px;"><path d="M121.33,307H108v-2.6a5.77,5.77,0,0,0-5.77-5.77H31.65a5.77,5.77,0,0,0-5.77,5.77v57.47a5.77,5.77,0,0,0,5.77,5.77h70.56a5.77,5.77,0,0,0,5.77-5.77v-42.2Z" style="fill: rgb(255, 255, 255); transform-origin: 73.605px 333.135px;" id="elsg1jks004rp" class="animable"></path><path d="M121.33,307,108.06,319.8l0-.09c0,6.37,0,14.39.06,23.77,0,4.69,0,9.73,0,15.07,0,1.34,0,2.66,0,4.08a5.93,5.93,0,0,1-2,3.75,6.07,6.07,0,0,1-4.06,1.52H97.73l-38.42,0H32.8a9.52,9.52,0,0,1-2.79-.23,6.07,6.07,0,0,1-2.48-1.4A6,6,0,0,1,26,363.92a6.14,6.14,0,0,1-.32-1.41,13.44,13.44,0,0,1,0-1.41v-5.59c0-15.92,0-31.28,0-45.74v-5.38a6,6,0,0,1,4.86-5.85,15.7,15.7,0,0,1,2.63-.11h5.1l19.37,0,32.89.05h10a14.62,14.62,0,0,1,3,.16,6,6,0,0,1,4.15,3.52,6.14,6.14,0,0,1,.43,2.5V307l-.11-.11,13.35.11-13.35.1h-.1V307c0-.75,0-1.53,0-2.34a6.19,6.19,0,0,0-.44-2.41,5.65,5.65,0,0,0-4-3.34,15.28,15.28,0,0,0-3-.14H97.29l-6.81,0-32.89.05H33.12a14.21,14.21,0,0,0-2.54.1,5.65,5.65,0,0,0-2.26,1,5.58,5.58,0,0,0-2.2,4.37v5.37c0,14.46,0,29.82,0,45.74v5.59a6.86,6.86,0,0,0,.32,2.65,5.32,5.32,0,0,0,1.43,2.18,5.43,5.43,0,0,0,2.26,1.28,9.26,9.26,0,0,0,2.65.21H59.31l38.42,0c2.9-.15,6.09.62,8.17-1.4a5.57,5.57,0,0,0,1.83-3.48c.09-1.32,0-2.71,0-4,0-5.34,0-10.38,0-15.07,0-9.38,0-17.4.06-23.77v0l0,0Z" style="fill: rgb(38, 50, 56); transform-origin: 73.5057px 333.168px;" id="el7ket0e2ewmm" class="animable"></path><path d="M102.9,315.17a10.43,10.43,0,0,1-6.66,5.76c-2.09.57-4.34.45-6.35,1.26-3.69,1.46-5.64,5.51-7.29,9.19s-3.71,7.71-7.45,9c-3.09,1.07-6.5-.06-9.37-1.66s-5.52-3.68-8.62-4.71c-5.51-1.83-11.73,0-16.29,3.71s-7.64,8.94-10,14.39h71.86Z" style="fill: rgb(69, 90, 100); transform-origin: 66.885px 333.64px;" id="elrdfb2l2a5he" class="animable"></path><path d="M102.9,352.07s0-.29,0-.82,0-1.34,0-2.36c0-2.08,0-5.1,0-9,0-7.75-.06-18.9-.11-32.54l.21.2L31,307.63h0l.26-.26c0,15.85,0,30.95,0,44.7l-.24-.24,51.73.12,14.86.06,4,0h1l.36,0h-.33l-1,0-3.92,0-14.8.06L31,352.31h-.24v-.24c0-13.75,0-28.85,0-44.7v-.26H31l71.94.06h.2v.2c0,13.69-.08,24.88-.11,32.67,0,3.85,0,6.86,0,8.93,0,1,0,1.78,0,2.32S102.9,352.07,102.9,352.07Z" style="fill: rgb(38, 50, 56); transform-origin: 66.95px 329.71px;" id="elt82zi4yyizj" class="animable"></path><path d="M49.29,351.92c-.15,0-.26-9.84-.26-22s.11-22,.26-22,.26,9.84.26,22S49.43,351.92,49.29,351.92Z" style="fill: rgb(38, 50, 56); transform-origin: 49.29px 329.92px;" id="el70tkh1r0a8c" class="animable"></path><path d="M67.79,352.77c-.14,0-.26-10.16-.26-22.7s.12-22.7.26-22.7.26,10.16.26,22.7S67.94,352.77,67.79,352.77Z" style="fill: rgb(38, 50, 56); transform-origin: 67.79px 330.07px;" id="elycdq0zjowc" class="animable"></path><path d="M85.84,352.77c-.14,0-.26-10.16-.26-22.7s.12-22.7.26-22.7.26,10.16.26,22.7S86,352.77,85.84,352.77Z" style="fill: rgb(38, 50, 56); transform-origin: 85.84px 330.07px;" id="eldt141zqnbo5" class="animable"></path><path d="M102.75,330.3c0,.14-16.06.26-35.86.26S31,330.44,31,330.3,47.09,330,66.89,330,102.75,330.15,102.75,330.3Z" style="fill: rgb(38, 50, 56); transform-origin: 66.875px 330.28px;" id="el8jb7qm48j3l" class="animable"></path><rect x="31.13" y="355.77" width="59.69" height="4.38" style="fill: rgb(224, 224, 224); transform-origin: 60.975px 357.96px;" id="elkymg0hmm4r" class="animable"></rect></g><defs>     <filter id="active" height="200%">         <feMorphology in="SourceAlpha" result="DILATED" operator="dilate" radius="2"></feMorphology>                <feFlood flood-color="#32DFEC" flood-opacity="1" result="PINK"></feFlood>        <feComposite in="PINK" in2="DILATED" operator="in" result="OUTLINE"></feComposite>        <feMerge>            <feMergeNode in="OUTLINE"></feMergeNode>            <feMergeNode in="SourceGraphic"></feMergeNode>        </feMerge>    </filter>    <filter id="hover" height="200%">        <feMorphology in="SourceAlpha" result="DILATED" operator="dilate" radius="2"></feMorphology>                <feFlood flood-color="#ff0000" flood-opacity="0.5" result="PINK"></feFlood>        <feComposite in="PINK" in2="DILATED" operator="in" result="OUTLINE"></feComposite>        <feMerge>            <feMergeNode in="OUTLINE"></feMergeNode>            <feMergeNode in="SourceGraphic"></feMergeNode>        </feMerge>            <feColorMatrix type="matrix" values="0   0   0   0   0                0   1   0   0   0                0   0   0   0   0                0   0   0   1   0 "></feColorMatrix>    </filter></defs></svg>